<svg width="521" height="521" viewBox="0 0 521 521" fill="none" xmlns="http://www.w3.org/2000/svg">
<circle cx="260.5" cy="260.5" r="260.5" fill="#E0E0E0"/>
<ellipse cx="366.5" cy="222" rx="124.5" ry="125" fill="#DD8C41" fill-opacity="0.75"/>
<circle cx="336" cy="386" r="94" fill="#4A6C5C" fill-opacity="0.75"/>
<circle cx="202.5" cy="151.5" r="109.5" fill="#4A6C5C" fill-opacity="0.75"/>
<circle cx="179.5" cy="288.5" r="145.5" fill="#6A77B7" fill-opacity="0.75"/>
<path d="M188.609 146.016H194.984L192.641 140.797C192.505 140.464 192.365 140.083 192.219 139.656C192.073 139.219 191.927 138.734 191.781 138.203C191.656 138.703 191.521 139.172 191.375 139.609C191.24 140.036 191.099 140.432 190.953 140.797L188.609 146.016ZM198.891 155L196.297 149.109H187.234L184.578 155H180.672L191.75 131.219L202.812 155H198.891ZM208.078 142.547C208.443 141.568 208.922 140.844 209.516 140.375C210.12 139.906 210.865 139.672 211.75 139.672C212.229 139.672 212.698 139.729 213.156 139.844C213.625 139.958 214.083 140.125 214.531 140.344L213.312 143.219C213.021 143.01 212.703 142.859 212.359 142.766C212.026 142.661 211.651 142.609 211.234 142.609C210.109 142.609 209.302 143.062 208.812 143.969C208.323 144.865 208.078 146.375 208.078 148.5V155H204.688V140.156H208.078V142.547ZM217.266 155V143.156H214.672V140.188H217.266V134.578H220.656V140.188H223.25V143.156H220.656V155H217.266Z" fill="#F5F5F5"/>
<path d="M301.359 65.6406H304.484C306.203 65.6406 307.49 65.526 308.344 65.2969C309.208 65.0677 309.958 64.6823 310.594 64.1406C311.458 63.401 312.104 62.4844 312.531 61.3906C312.969 60.2865 313.188 59.0052 313.188 57.5469C313.188 56.0885 312.969 54.8125 312.531 53.7188C312.104 52.6146 311.458 51.6927 310.594 50.9531C309.948 50.4115 309.172 50.026 308.266 49.7969C307.37 49.5677 305.964 49.4531 304.047 49.4531H302.703H301.359V65.6406ZM297.641 69V46.125H302.656C305.917 46.125 308.208 46.2917 309.531 46.625C310.865 46.9479 312.031 47.4948 313.031 48.2656C314.354 49.276 315.354 50.5729 316.031 52.1562C316.719 53.7396 317.062 55.5469 317.062 57.5781C317.062 59.6094 316.719 61.4115 316.031 62.9844C315.354 64.5469 314.354 65.8385 313.031 66.8594C312.031 67.6302 310.891 68.1823 309.609 68.5156C308.339 68.8385 306.354 69 303.656 69H302.656H297.641ZM335.312 62.0938H323.469C323.552 63.4792 323.964 64.5625 324.703 65.3438C325.443 66.1146 326.427 66.5 327.656 66.5C328.75 66.5 329.661 66.2708 330.391 65.8125C331.12 65.3542 331.755 64.6146 332.297 63.5938L335.156 65.1875C334.323 66.6771 333.292 67.7865 332.062 68.5156C330.833 69.2448 329.391 69.6094 327.734 69.6094C325.359 69.6094 323.469 68.8854 322.062 67.4375C320.656 65.9896 319.953 64.0573 319.953 61.6406C319.953 59.3177 320.677 57.4115 322.125 55.9219C323.583 54.4219 325.453 53.6719 327.734 53.6719C330.12 53.6719 331.979 54.3542 333.312 55.7188C334.646 57.0833 335.312 58.9948 335.312 61.4531V62.0938ZM331.797 59.8125C331.661 58.75 331.255 57.9427 330.578 57.3906C329.901 56.8281 328.974 56.5469 327.797 56.5469C326.682 56.5469 325.786 56.8177 325.109 57.3594C324.432 57.901 323.958 58.7188 323.688 59.8125H331.797ZM337.156 66.3125L339.969 64.7812C340.177 65.5208 340.562 66.0833 341.125 66.4688C341.688 66.8542 342.411 67.0469 343.297 67.0469C344.057 67.0469 344.651 66.875 345.078 66.5312C345.516 66.1771 345.734 65.6979 345.734 65.0938C345.734 64.2917 344.964 63.6042 343.422 63.0312C342.901 62.8438 342.5 62.6875 342.219 62.5625C340.635 61.9062 339.526 61.2396 338.891 60.5625C338.266 59.8854 337.953 59.0625 337.953 58.0938C337.953 56.7708 338.469 55.6979 339.5 54.875C340.542 54.0521 341.917 53.6406 343.625 53.6406C344.771 53.6406 345.75 53.8542 346.562 54.2812C347.385 54.6979 347.984 55.2969 348.359 56.0781L345.953 57.7344C345.776 57.2656 345.464 56.8958 345.016 56.625C344.578 56.3438 344.068 56.2031 343.484 56.2031C342.839 56.2031 342.318 56.3594 341.922 56.6719C341.536 56.974 341.344 57.3802 341.344 57.8906C341.344 58.6615 342.219 59.3646 343.969 60C344.521 60.1979 344.948 60.3594 345.25 60.4844C346.615 61.026 347.589 61.6406 348.172 62.3281C348.766 63.0052 349.062 63.8542 349.062 64.875C349.062 66.3542 348.526 67.5156 347.453 68.3594C346.38 69.1927 344.901 69.6094 343.016 69.6094C341.568 69.6094 340.365 69.3385 339.406 68.7969C338.448 68.2552 337.698 67.4271 337.156 66.3125ZM352.188 47.7812C352.188 47.2083 352.396 46.7135 352.812 46.2969C353.24 45.8802 353.745 45.6719 354.328 45.6719C354.932 45.6719 355.432 45.875 355.828 46.2812C356.234 46.6771 356.438 47.1771 356.438 47.7812C356.438 48.3854 356.234 48.8958 355.828 49.3125C355.422 49.7188 354.922 49.9219 354.328 49.9219C353.745 49.9219 353.24 49.7135 352.812 49.2969C352.396 48.8698 352.188 48.3646 352.188 47.7812ZM352.641 69V54.1875H356.031V69H352.641ZM371.531 61.5469C371.531 60.0156 371.172 58.8229 370.453 57.9688C369.745 57.1146 368.75 56.6875 367.469 56.6875C366.188 56.6875 365.177 57.1302 364.438 58.0156C363.708 58.8906 363.344 60.1094 363.344 61.6719C363.344 63.2448 363.698 64.4583 364.406 65.3125C365.115 66.1667 366.115 66.5938 367.406 66.5938C368.625 66.5938 369.615 66.1302 370.375 65.2031C371.146 64.276 371.531 63.0573 371.531 61.5469ZM374.828 68.0781C374.828 70.974 374.25 73.0104 373.094 74.1875C371.938 75.375 369.99 75.9688 367.25 75.9688C365.208 75.9688 363.578 75.5365 362.359 74.6719C361.141 73.8177 360.521 72.6771 360.5 71.25L364.141 71.2344C364.193 71.8698 364.49 72.3542 365.031 72.6875C365.573 73.0208 366.333 73.1875 367.312 73.1875C368.76 73.1875 369.802 72.8698 370.438 72.2344C371.073 71.599 371.396 70.5365 371.406 69.0469L371.438 67.0781C370.833 67.9323 370.125 68.5677 369.312 68.9844C368.51 69.401 367.589 69.6094 366.547 69.6094C364.453 69.6094 362.802 68.8958 361.594 67.4688C360.396 66.0312 359.797 64.0677 359.797 61.5781C359.797 59.2135 360.411 57.3073 361.641 55.8594C362.87 54.401 364.474 53.6719 366.453 53.6719C367.661 53.6719 368.693 53.9271 369.547 54.4375C370.411 54.9375 371.042 55.6615 371.438 56.6094V54.1875H374.828V68.0781ZM379.516 69V54.1875H382.703V56.6094C383.38 55.5885 384.177 54.8438 385.094 54.375C386.01 53.9062 387.125 53.6719 388.438 53.6719C389.542 53.6719 390.479 53.849 391.25 54.2031C392.031 54.5469 392.641 55.0625 393.078 55.75C393.339 56.1562 393.526 56.6302 393.641 57.1719C393.755 57.7135 393.812 58.6615 393.812 60.0156V69H390.391V61.3906C390.391 59.4427 390.151 58.151 389.672 57.5156C389.203 56.8698 388.365 56.5469 387.156 56.5469C386.365 56.5469 385.656 56.6927 385.031 56.9844C384.417 57.276 383.932 57.6875 383.578 58.2188C383.328 58.5729 383.151 59.0312 383.047 59.5938C382.953 60.1458 382.906 61.0312 382.906 62.25V69H379.516Z" fill="#1F2D3B"/>
<path d="M295.125 214.281V234H291.406V214.281H285.328V211.125H301.172V214.281H295.125ZM314.781 227.094H302.938C303.021 228.479 303.432 229.562 304.172 230.344C304.911 231.115 305.896 231.5 307.125 231.5C308.219 231.5 309.13 231.271 309.859 230.812C310.589 230.354 311.224 229.615 311.766 228.594L314.625 230.188C313.792 231.677 312.76 232.786 311.531 233.516C310.302 234.245 308.859 234.609 307.203 234.609C304.828 234.609 302.938 233.885 301.531 232.438C300.125 230.99 299.422 229.057 299.422 226.641C299.422 224.318 300.146 222.411 301.594 220.922C303.052 219.422 304.922 218.672 307.203 218.672C309.589 218.672 311.448 219.354 312.781 220.719C314.115 222.083 314.781 223.995 314.781 226.453V227.094ZM311.266 224.812C311.13 223.75 310.724 222.943 310.047 222.391C309.37 221.828 308.443 221.547 307.266 221.547C306.151 221.547 305.255 221.818 304.578 222.359C303.901 222.901 303.427 223.719 303.156 224.812H311.266ZM329.391 223.406C328.87 222.833 328.26 222.396 327.562 222.094C326.875 221.792 326.13 221.641 325.328 221.641C323.943 221.641 322.833 222.089 322 222.984C321.167 223.88 320.75 225.068 320.75 226.547C320.75 228.089 321.167 229.302 322 230.188C322.844 231.062 324.005 231.5 325.484 231.5C326.307 231.5 327.042 231.349 327.688 231.047C328.333 230.734 328.901 230.266 329.391 229.641V233.547C328.766 233.901 328.094 234.167 327.375 234.344C326.667 234.521 325.911 234.609 325.109 234.609C322.786 234.609 320.891 233.87 319.422 232.391C317.964 230.911 317.234 228.995 317.234 226.641C317.234 224.255 317.99 222.333 319.5 220.875C321.021 219.406 323.005 218.672 325.453 218.672C326.224 218.672 326.932 218.75 327.578 218.906C328.224 219.052 328.828 219.281 329.391 219.594V223.406ZM332.859 234V209.781H336.047V221.609C336.724 220.589 337.521 219.844 338.438 219.375C339.354 218.906 340.469 218.672 341.781 218.672C342.885 218.672 343.823 218.849 344.594 219.203C345.375 219.547 345.984 220.062 346.422 220.75C346.682 221.156 346.87 221.63 346.984 222.172C347.099 222.714 347.156 223.661 347.156 225.016V234H343.734V226.391C343.734 224.443 343.495 223.151 343.016 222.516C342.547 221.87 341.708 221.547 340.5 221.547C339.708 221.547 339 221.693 338.375 221.984C337.76 222.276 337.276 222.688 336.922 223.219C336.672 223.573 336.495 224.031 336.391 224.594C336.297 225.146 336.25 226.031 336.25 227.25V234H332.859ZM351.672 234V219.188H354.859V221.609C355.536 220.589 356.333 219.844 357.25 219.375C358.167 218.906 359.281 218.672 360.594 218.672C361.698 218.672 362.635 218.849 363.406 219.203C364.188 219.547 364.797 220.062 365.234 220.75C365.495 221.156 365.682 221.63 365.797 222.172C365.911 222.714 365.969 223.661 365.969 225.016V234H362.547V226.391C362.547 224.443 362.307 223.151 361.828 222.516C361.359 221.87 360.521 221.547 359.312 221.547C358.521 221.547 357.812 221.693 357.188 221.984C356.573 222.276 356.089 222.688 355.734 223.219C355.484 223.573 355.307 224.031 355.203 224.594C355.109 225.146 355.062 226.031 355.062 227.25V234H351.672ZM382.125 226.641C382.125 225.266 381.682 224.104 380.797 223.156C379.911 222.198 378.828 221.719 377.547 221.719C376.276 221.719 375.193 222.198 374.297 223.156C373.411 224.104 372.969 225.266 372.969 226.641C372.969 228.016 373.411 229.182 374.297 230.141C375.193 231.089 376.276 231.562 377.547 231.562C378.818 231.562 379.896 231.089 380.781 230.141C381.677 229.182 382.125 228.016 382.125 226.641ZM369.391 226.609C369.391 225.526 369.594 224.505 370 223.547C370.417 222.578 371.01 221.719 371.781 220.969C372.542 220.229 373.417 219.661 374.406 219.266C375.396 218.87 376.432 218.672 377.516 218.672C378.63 218.672 379.677 218.87 380.656 219.266C381.646 219.661 382.531 220.245 383.312 221.016C384.094 221.776 384.688 222.635 385.094 223.594C385.5 224.552 385.703 225.557 385.703 226.609C385.703 227.703 385.5 228.729 385.094 229.688C384.698 230.646 384.115 231.495 383.344 232.234C382.531 233.016 381.63 233.604 380.641 234C379.651 234.406 378.609 234.609 377.516 234.609C376.443 234.609 375.411 234.406 374.422 234C373.432 233.604 372.552 233.026 371.781 232.266C371 231.495 370.406 230.63 370 229.672C369.594 228.714 369.391 227.693 369.391 226.609ZM389.453 234V209.781H392.844V234H389.453ZM409.344 226.641C409.344 225.266 408.901 224.104 408.016 223.156C407.13 222.198 406.047 221.719 404.766 221.719C403.495 221.719 402.411 222.198 401.516 223.156C400.63 224.104 400.188 225.266 400.188 226.641C400.188 228.016 400.63 229.182 401.516 230.141C402.411 231.089 403.495 231.562 404.766 231.562C406.036 231.562 407.115 231.089 408 230.141C408.896 229.182 409.344 228.016 409.344 226.641ZM396.609 226.609C396.609 225.526 396.812 224.505 397.219 223.547C397.635 222.578 398.229 221.719 399 220.969C399.76 220.229 400.635 219.661 401.625 219.266C402.615 218.87 403.651 218.672 404.734 218.672C405.849 218.672 406.896 218.87 407.875 219.266C408.865 219.661 409.75 220.245 410.531 221.016C411.312 221.776 411.906 222.635 412.312 223.594C412.719 224.552 412.922 225.557 412.922 226.609C412.922 227.703 412.719 228.729 412.312 229.688C411.917 230.646 411.333 231.495 410.562 232.234C409.75 233.016 408.849 233.604 407.859 234C406.87 234.406 405.828 234.609 404.734 234.609C403.661 234.609 402.63 234.406 401.641 234C400.651 233.604 399.771 233.026 399 232.266C398.219 231.495 397.625 230.63 397.219 229.672C396.812 228.714 396.609 227.693 396.609 226.609ZM427.156 226.547C427.156 225.016 426.797 223.823 426.078 222.969C425.37 222.115 424.375 221.688 423.094 221.688C421.812 221.688 420.802 222.13 420.062 223.016C419.333 223.891 418.969 225.109 418.969 226.672C418.969 228.245 419.323 229.458 420.031 230.312C420.74 231.167 421.74 231.594 423.031 231.594C424.25 231.594 425.24 231.13 426 230.203C426.771 229.276 427.156 228.057 427.156 226.547ZM430.453 233.078C430.453 235.974 429.875 238.01 428.719 239.188C427.562 240.375 425.615 240.969 422.875 240.969C420.833 240.969 419.203 240.536 417.984 239.672C416.766 238.818 416.146 237.677 416.125 236.25L419.766 236.234C419.818 236.87 420.115 237.354 420.656 237.688C421.198 238.021 421.958 238.188 422.938 238.188C424.385 238.188 425.427 237.87 426.062 237.234C426.698 236.599 427.021 235.536 427.031 234.047L427.062 232.078C426.458 232.932 425.75 233.568 424.938 233.984C424.135 234.401 423.214 234.609 422.172 234.609C420.078 234.609 418.427 233.896 417.219 232.469C416.021 231.031 415.422 229.068 415.422 226.578C415.422 224.214 416.036 222.307 417.266 220.859C418.495 219.401 420.099 218.672 422.078 218.672C423.286 218.672 424.318 218.927 425.172 219.438C426.036 219.938 426.667 220.661 427.062 221.609V219.188H430.453V233.078ZM437.688 240.969H434.203L438.266 232.719L432.828 219.188H436.578L439.297 226.859C439.453 227.328 439.589 227.807 439.703 228.297C439.828 228.776 439.927 229.266 440 229.766C440.135 229.245 440.458 228.417 440.969 227.281L441.047 227.094L444.703 219.188H448.375L437.688 240.969Z" fill="#F5F5F5"/>
<path d="M131.141 259.688C130.089 258.792 128.974 258.12 127.797 257.672C126.63 257.224 125.401 257 124.109 257C121.609 257 119.573 257.802 118 259.406C116.438 261.01 115.656 263.089 115.656 265.641C115.656 268.109 116.417 270.146 117.938 271.75C119.469 273.354 121.396 274.156 123.719 274.156C125.073 274.156 126.359 273.917 127.578 273.438C128.807 272.958 129.984 272.234 131.109 271.266V275.469C130.109 276.188 129.021 276.724 127.844 277.078C126.667 277.432 125.391 277.609 124.016 277.609C122.266 277.609 120.646 277.323 119.156 276.75C117.677 276.177 116.375 275.333 115.25 274.219C114.135 273.125 113.276 271.839 112.672 270.359C112.078 268.87 111.781 267.286 111.781 265.609C111.781 263.932 112.078 262.359 112.672 260.891C113.276 259.411 114.146 258.115 115.281 257C116.417 255.875 117.719 255.026 119.188 254.453C120.656 253.87 122.245 253.578 123.953 253.578C125.297 253.578 126.578 253.776 127.797 254.172C129.016 254.557 130.198 255.146 131.344 255.938L131.141 259.688ZM147.109 269.641C147.109 268.266 146.667 267.104 145.781 266.156C144.896 265.198 143.812 264.719 142.531 264.719C141.26 264.719 140.177 265.198 139.281 266.156C138.396 267.104 137.953 268.266 137.953 269.641C137.953 271.016 138.396 272.182 139.281 273.141C140.177 274.089 141.26 274.562 142.531 274.562C143.802 274.562 144.88 274.089 145.766 273.141C146.661 272.182 147.109 271.016 147.109 269.641ZM134.375 269.609C134.375 268.526 134.578 267.505 134.984 266.547C135.401 265.578 135.995 264.719 136.766 263.969C137.526 263.229 138.401 262.661 139.391 262.266C140.38 261.87 141.417 261.672 142.5 261.672C143.615 261.672 144.661 261.87 145.641 262.266C146.63 262.661 147.516 263.245 148.297 264.016C149.078 264.776 149.672 265.635 150.078 266.594C150.484 267.552 150.688 268.557 150.688 269.609C150.688 270.703 150.484 271.729 150.078 272.688C149.682 273.646 149.099 274.495 148.328 275.234C147.516 276.016 146.615 276.604 145.625 277C144.635 277.406 143.594 277.609 142.5 277.609C141.427 277.609 140.396 277.406 139.406 277C138.417 276.604 137.536 276.026 136.766 275.266C135.984 274.495 135.391 273.63 134.984 272.672C134.578 271.714 134.375 270.693 134.375 269.609ZM164.922 269.547C164.922 268.016 164.562 266.823 163.844 265.969C163.135 265.115 162.141 264.688 160.859 264.688C159.578 264.688 158.568 265.13 157.828 266.016C157.099 266.891 156.734 268.109 156.734 269.672C156.734 271.245 157.089 272.458 157.797 273.312C158.505 274.167 159.505 274.594 160.797 274.594C162.016 274.594 163.005 274.13 163.766 273.203C164.536 272.276 164.922 271.057 164.922 269.547ZM168.219 276.078C168.219 278.974 167.641 281.01 166.484 282.188C165.328 283.375 163.38 283.969 160.641 283.969C158.599 283.969 156.969 283.536 155.75 282.672C154.531 281.818 153.911 280.677 153.891 279.25L157.531 279.234C157.583 279.87 157.88 280.354 158.422 280.688C158.964 281.021 159.724 281.188 160.703 281.188C162.151 281.188 163.193 280.87 163.828 280.234C164.464 279.599 164.786 278.536 164.797 277.047L164.828 275.078C164.224 275.932 163.516 276.568 162.703 276.984C161.901 277.401 160.979 277.609 159.938 277.609C157.844 277.609 156.193 276.896 154.984 275.469C153.786 274.031 153.188 272.068 153.188 269.578C153.188 267.214 153.802 265.307 155.031 263.859C156.26 262.401 157.865 261.672 159.844 261.672C161.052 261.672 162.083 261.927 162.938 262.438C163.802 262.938 164.432 263.661 164.828 264.609V262.188H168.219V276.078ZM172.906 277V262.188H176.094V264.609C176.771 263.589 177.568 262.844 178.484 262.375C179.401 261.906 180.516 261.672 181.828 261.672C182.932 261.672 183.87 261.849 184.641 262.203C185.422 262.547 186.031 263.062 186.469 263.75C186.729 264.156 186.917 264.63 187.031 265.172C187.146 265.714 187.203 266.661 187.203 268.016V277H183.781V269.391C183.781 267.443 183.542 266.151 183.062 265.516C182.594 264.87 181.755 264.547 180.547 264.547C179.755 264.547 179.047 264.693 178.422 264.984C177.807 265.276 177.323 265.688 176.969 266.219C176.719 266.573 176.542 267.031 176.438 267.594C176.344 268.146 176.297 269.031 176.297 270.25V277H172.906ZM191.422 255.781C191.422 255.208 191.63 254.714 192.047 254.297C192.474 253.88 192.979 253.672 193.562 253.672C194.167 253.672 194.667 253.875 195.062 254.281C195.469 254.677 195.672 255.177 195.672 255.781C195.672 256.385 195.469 256.896 195.062 257.312C194.656 257.719 194.156 257.922 193.562 257.922C192.979 257.922 192.474 257.714 192.047 257.297C191.63 256.87 191.422 256.365 191.422 255.781ZM191.875 277V262.188H195.266V277H191.875ZM200.922 277V265.156H198.328V262.188H200.922V256.578H204.312V262.188H206.906V265.156H204.312V277H200.922ZM209.547 255.781C209.547 255.208 209.755 254.714 210.172 254.297C210.599 253.88 211.104 253.672 211.688 253.672C212.292 253.672 212.792 253.875 213.188 254.281C213.594 254.677 213.797 255.177 213.797 255.781C213.797 256.385 213.594 256.896 213.188 257.312C212.781 257.719 212.281 257.922 211.688 257.922C211.104 257.922 210.599 257.714 210.172 257.297C209.755 256.87 209.547 256.365 209.547 255.781ZM210 277V262.188H213.391V277H210ZM223.453 277.891L215.688 262.188H219.391L222.625 269.641C222.729 269.87 222.854 270.214 223 270.672C223.146 271.13 223.297 271.677 223.453 272.312C223.557 271.865 223.677 271.422 223.812 270.984C223.958 270.536 224.13 270.089 224.328 269.641L227.547 262.188H231.234L223.453 277.891ZM247.641 270.094H235.797C235.88 271.479 236.292 272.562 237.031 273.344C237.771 274.115 238.755 274.5 239.984 274.5C241.078 274.5 241.99 274.271 242.719 273.812C243.448 273.354 244.083 272.615 244.625 271.594L247.484 273.188C246.651 274.677 245.62 275.786 244.391 276.516C243.161 277.245 241.719 277.609 240.062 277.609C237.688 277.609 235.797 276.885 234.391 275.438C232.984 273.99 232.281 272.057 232.281 269.641C232.281 267.318 233.005 265.411 234.453 263.922C235.911 262.422 237.781 261.672 240.062 261.672C242.448 261.672 244.307 262.354 245.641 263.719C246.974 265.083 247.641 266.995 247.641 269.453V270.094ZM244.125 267.812C243.99 266.75 243.583 265.943 242.906 265.391C242.229 264.828 241.302 264.547 240.125 264.547C239.01 264.547 238.115 264.818 237.438 265.359C236.76 265.901 236.286 266.719 236.016 267.812H244.125ZM106.703 311.688H107.656C109.719 311.688 111.094 311.464 111.781 311.016C112.469 310.568 112.812 309.776 112.812 308.641C112.812 307.422 112.443 306.562 111.703 306.062C110.974 305.562 109.625 305.312 107.656 305.312H106.703V311.688ZM106.469 314.734V325H102.984V302.125H108.609C110.276 302.125 111.5 302.219 112.281 302.406C113.073 302.583 113.76 302.88 114.344 303.297C115.062 303.828 115.625 304.547 116.031 305.453C116.438 306.349 116.641 307.339 116.641 308.422C116.641 309.505 116.438 310.505 116.031 311.422C115.625 312.339 115.062 313.057 114.344 313.578C113.76 313.995 113.073 314.292 112.281 314.469C111.5 314.646 110.276 314.734 108.609 314.734H107.875H106.469ZM117.469 322.312L120.281 320.781C120.49 321.521 120.875 322.083 121.438 322.469C122 322.854 122.724 323.047 123.609 323.047C124.37 323.047 124.964 322.875 125.391 322.531C125.828 322.177 126.047 321.698 126.047 321.094C126.047 320.292 125.276 319.604 123.734 319.031C123.214 318.844 122.812 318.688 122.531 318.562C120.948 317.906 119.839 317.24 119.203 316.562C118.578 315.885 118.266 315.062 118.266 314.094C118.266 312.771 118.781 311.698 119.812 310.875C120.854 310.052 122.229 309.641 123.938 309.641C125.083 309.641 126.062 309.854 126.875 310.281C127.698 310.698 128.297 311.297 128.672 312.078L126.266 313.734C126.089 313.266 125.776 312.896 125.328 312.625C124.891 312.344 124.38 312.203 123.797 312.203C123.151 312.203 122.63 312.359 122.234 312.672C121.849 312.974 121.656 313.38 121.656 313.891C121.656 314.661 122.531 315.365 124.281 316C124.833 316.198 125.26 316.359 125.562 316.484C126.927 317.026 127.901 317.641 128.484 318.328C129.078 319.005 129.375 319.854 129.375 320.875C129.375 322.354 128.839 323.516 127.766 324.359C126.693 325.193 125.214 325.609 123.328 325.609C121.88 325.609 120.677 325.339 119.719 324.797C118.76 324.255 118.01 323.427 117.469 322.312ZM135.344 331.969H131.859L135.922 323.719L130.484 310.188H134.234L136.953 317.859C137.109 318.328 137.245 318.807 137.359 319.297C137.484 319.776 137.583 320.266 137.656 320.766C137.792 320.245 138.115 319.417 138.625 318.281L138.703 318.094L142.359 310.188H146.031L135.344 331.969ZM158.953 314.406C158.432 313.833 157.823 313.396 157.125 313.094C156.438 312.792 155.693 312.641 154.891 312.641C153.505 312.641 152.396 313.089 151.562 313.984C150.729 314.88 150.312 316.068 150.312 317.547C150.312 319.089 150.729 320.302 151.562 321.188C152.406 322.062 153.568 322.5 155.047 322.5C155.87 322.5 156.604 322.349 157.25 322.047C157.896 321.734 158.464 321.266 158.953 320.641V324.547C158.328 324.901 157.656 325.167 156.938 325.344C156.229 325.521 155.474 325.609 154.672 325.609C152.349 325.609 150.453 324.87 148.984 323.391C147.526 321.911 146.797 319.995 146.797 317.641C146.797 315.255 147.552 313.333 149.062 311.875C150.583 310.406 152.568 309.672 155.016 309.672C155.786 309.672 156.495 309.75 157.141 309.906C157.786 310.052 158.391 310.281 158.953 310.594V314.406ZM162.422 325V300.781H165.609V312.609C166.286 311.589 167.083 310.844 168 310.375C168.917 309.906 170.031 309.672 171.344 309.672C172.448 309.672 173.385 309.849 174.156 310.203C174.938 310.547 175.547 311.062 175.984 311.75C176.245 312.156 176.432 312.63 176.547 313.172C176.661 313.714 176.719 314.661 176.719 316.016V325H173.297V317.391C173.297 315.443 173.057 314.151 172.578 313.516C172.109 312.87 171.271 312.547 170.062 312.547C169.271 312.547 168.562 312.693 167.938 312.984C167.323 313.276 166.839 313.688 166.484 314.219C166.234 314.573 166.057 315.031 165.953 315.594C165.859 316.146 165.812 317.031 165.812 318.25V325H162.422ZM192.875 317.641C192.875 316.266 192.432 315.104 191.547 314.156C190.661 313.198 189.578 312.719 188.297 312.719C187.026 312.719 185.943 313.198 185.047 314.156C184.161 315.104 183.719 316.266 183.719 317.641C183.719 319.016 184.161 320.182 185.047 321.141C185.943 322.089 187.026 322.562 188.297 322.562C189.568 322.562 190.646 322.089 191.531 321.141C192.427 320.182 192.875 319.016 192.875 317.641ZM180.141 317.609C180.141 316.526 180.344 315.505 180.75 314.547C181.167 313.578 181.76 312.719 182.531 311.969C183.292 311.229 184.167 310.661 185.156 310.266C186.146 309.87 187.182 309.672 188.266 309.672C189.38 309.672 190.427 309.87 191.406 310.266C192.396 310.661 193.281 311.245 194.062 312.016C194.844 312.776 195.438 313.635 195.844 314.594C196.25 315.552 196.453 316.557 196.453 317.609C196.453 318.703 196.25 319.729 195.844 320.688C195.448 321.646 194.865 322.495 194.094 323.234C193.281 324.016 192.38 324.604 191.391 325C190.401 325.406 189.359 325.609 188.266 325.609C187.193 325.609 186.161 325.406 185.172 325C184.182 324.604 183.302 324.026 182.531 323.266C181.75 322.495 181.156 321.63 180.75 320.672C180.344 319.714 180.141 318.693 180.141 317.609ZM200.203 325V300.781H203.594V325H200.203ZM220.094 317.641C220.094 316.266 219.651 315.104 218.766 314.156C217.88 313.198 216.797 312.719 215.516 312.719C214.245 312.719 213.161 313.198 212.266 314.156C211.38 315.104 210.938 316.266 210.938 317.641C210.938 319.016 211.38 320.182 212.266 321.141C213.161 322.089 214.245 322.562 215.516 322.562C216.786 322.562 217.865 322.089 218.75 321.141C219.646 320.182 220.094 319.016 220.094 317.641ZM207.359 317.609C207.359 316.526 207.562 315.505 207.969 314.547C208.385 313.578 208.979 312.719 209.75 311.969C210.51 311.229 211.385 310.661 212.375 310.266C213.365 309.87 214.401 309.672 215.484 309.672C216.599 309.672 217.646 309.87 218.625 310.266C219.615 310.661 220.5 311.245 221.281 312.016C222.062 312.776 222.656 313.635 223.062 314.594C223.469 315.552 223.672 316.557 223.672 317.609C223.672 318.703 223.469 319.729 223.062 320.688C222.667 321.646 222.083 322.495 221.312 323.234C220.5 324.016 219.599 324.604 218.609 325C217.62 325.406 216.578 325.609 215.484 325.609C214.411 325.609 213.38 325.406 212.391 325C211.401 324.604 210.521 324.026 209.75 323.266C208.969 322.495 208.375 321.63 207.969 320.672C207.562 319.714 207.359 318.693 207.359 317.609ZM237.906 317.547C237.906 316.016 237.547 314.823 236.828 313.969C236.12 313.115 235.125 312.688 233.844 312.688C232.562 312.688 231.552 313.13 230.812 314.016C230.083 314.891 229.719 316.109 229.719 317.672C229.719 319.245 230.073 320.458 230.781 321.312C231.49 322.167 232.49 322.594 233.781 322.594C235 322.594 235.99 322.13 236.75 321.203C237.521 320.276 237.906 319.057 237.906 317.547ZM241.203 324.078C241.203 326.974 240.625 329.01 239.469 330.188C238.312 331.375 236.365 331.969 233.625 331.969C231.583 331.969 229.953 331.536 228.734 330.672C227.516 329.818 226.896 328.677 226.875 327.25L230.516 327.234C230.568 327.87 230.865 328.354 231.406 328.688C231.948 329.021 232.708 329.188 233.688 329.188C235.135 329.188 236.177 328.87 236.812 328.234C237.448 327.599 237.771 326.536 237.781 325.047L237.812 323.078C237.208 323.932 236.5 324.568 235.688 324.984C234.885 325.401 233.964 325.609 232.922 325.609C230.828 325.609 229.177 324.896 227.969 323.469C226.771 322.031 226.172 320.068 226.172 317.578C226.172 315.214 226.786 313.307 228.016 311.859C229.245 310.401 230.849 309.672 232.828 309.672C234.036 309.672 235.068 309.927 235.922 310.438C236.786 310.938 237.417 311.661 237.812 312.609V310.188H241.203V324.078ZM248.438 331.969H244.953L249.016 323.719L243.578 310.188H247.328L250.047 317.859C250.203 318.328 250.339 318.807 250.453 319.297C250.578 319.776 250.677 320.266 250.75 320.766C250.885 320.245 251.208 319.417 251.719 318.281L251.797 318.094L255.453 310.188H259.125L248.438 331.969Z" fill="#F5F5F5"/>
<path d="M264.125 365.688H265.078C267.141 365.688 268.516 365.464 269.203 365.016C269.891 364.568 270.234 363.776 270.234 362.641C270.234 361.422 269.865 360.562 269.125 360.062C268.396 359.562 267.047 359.312 265.078 359.312H264.125V365.688ZM263.891 368.734V379H260.406V356.125H266.031C267.698 356.125 268.922 356.219 269.703 356.406C270.495 356.583 271.182 356.88 271.766 357.297C272.484 357.828 273.047 358.547 273.453 359.453C273.859 360.349 274.062 361.339 274.062 362.422C274.062 363.505 273.859 364.505 273.453 365.422C273.047 366.339 272.484 367.057 271.766 367.578C271.182 367.995 270.495 368.292 269.703 368.469C268.922 368.646 267.698 368.734 266.031 368.734H265.297H263.891ZM277.156 379V354.781H280.344V366.609C281.021 365.589 281.818 364.844 282.734 364.375C283.651 363.906 284.766 363.672 286.078 363.672C287.182 363.672 288.12 363.849 288.891 364.203C289.672 364.547 290.281 365.062 290.719 365.75C290.979 366.156 291.167 366.63 291.281 367.172C291.396 367.714 291.453 368.661 291.453 370.016V379H288.031V371.391C288.031 369.443 287.792 368.151 287.312 367.516C286.844 366.87 286.005 366.547 284.797 366.547C284.005 366.547 283.297 366.693 282.672 366.984C282.057 367.276 281.573 367.688 281.219 368.219C280.969 368.573 280.792 369.031 280.688 369.594C280.594 370.146 280.547 371.031 280.547 372.25V379H277.156ZM295.672 357.781C295.672 357.208 295.88 356.714 296.297 356.297C296.724 355.88 297.229 355.672 297.812 355.672C298.417 355.672 298.917 355.875 299.312 356.281C299.719 356.677 299.922 357.177 299.922 357.781C299.922 358.385 299.719 358.896 299.312 359.312C298.906 359.719 298.406 359.922 297.812 359.922C297.229 359.922 296.724 359.714 296.297 359.297C295.88 358.87 295.672 358.365 295.672 357.781ZM296.125 379V364.188H299.516V379H296.125ZM304.531 379V354.781H307.922V379H304.531ZM324.422 371.641C324.422 370.266 323.979 369.104 323.094 368.156C322.208 367.198 321.125 366.719 319.844 366.719C318.573 366.719 317.49 367.198 316.594 368.156C315.708 369.104 315.266 370.266 315.266 371.641C315.266 373.016 315.708 374.182 316.594 375.141C317.49 376.089 318.573 376.562 319.844 376.562C321.115 376.562 322.193 376.089 323.078 375.141C323.974 374.182 324.422 373.016 324.422 371.641ZM311.688 371.609C311.688 370.526 311.891 369.505 312.297 368.547C312.714 367.578 313.307 366.719 314.078 365.969C314.839 365.229 315.714 364.661 316.703 364.266C317.693 363.87 318.729 363.672 319.812 363.672C320.927 363.672 321.974 363.87 322.953 364.266C323.943 364.661 324.828 365.245 325.609 366.016C326.391 366.776 326.984 367.635 327.391 368.594C327.797 369.552 328 370.557 328 371.609C328 372.703 327.797 373.729 327.391 374.688C326.995 375.646 326.411 376.495 325.641 377.234C324.828 378.016 323.927 378.604 322.938 379C321.948 379.406 320.906 379.609 319.812 379.609C318.74 379.609 317.708 379.406 316.719 379C315.729 378.604 314.849 378.026 314.078 377.266C313.297 376.495 312.703 375.63 312.297 374.672C311.891 373.714 311.688 372.693 311.688 371.609ZM329.891 376.312L332.703 374.781C332.911 375.521 333.297 376.083 333.859 376.469C334.422 376.854 335.146 377.047 336.031 377.047C336.792 377.047 337.385 376.875 337.812 376.531C338.25 376.177 338.469 375.698 338.469 375.094C338.469 374.292 337.698 373.604 336.156 373.031C335.635 372.844 335.234 372.688 334.953 372.562C333.37 371.906 332.26 371.24 331.625 370.562C331 369.885 330.688 369.062 330.688 368.094C330.688 366.771 331.203 365.698 332.234 364.875C333.276 364.052 334.651 363.641 336.359 363.641C337.505 363.641 338.484 363.854 339.297 364.281C340.12 364.698 340.719 365.297 341.094 366.078L338.688 367.734C338.51 367.266 338.198 366.896 337.75 366.625C337.312 366.344 336.802 366.203 336.219 366.203C335.573 366.203 335.052 366.359 334.656 366.672C334.271 366.974 334.078 367.38 334.078 367.891C334.078 368.661 334.953 369.365 336.703 370C337.255 370.198 337.682 370.359 337.984 370.484C339.349 371.026 340.323 371.641 340.906 372.328C341.5 373.005 341.797 373.854 341.797 374.875C341.797 376.354 341.26 377.516 340.188 378.359C339.115 379.193 337.635 379.609 335.75 379.609C334.302 379.609 333.099 379.339 332.141 378.797C331.182 378.255 330.432 377.427 329.891 376.312ZM356.859 371.641C356.859 370.266 356.417 369.104 355.531 368.156C354.646 367.198 353.562 366.719 352.281 366.719C351.01 366.719 349.927 367.198 349.031 368.156C348.146 369.104 347.703 370.266 347.703 371.641C347.703 373.016 348.146 374.182 349.031 375.141C349.927 376.089 351.01 376.562 352.281 376.562C353.552 376.562 354.63 376.089 355.516 375.141C356.411 374.182 356.859 373.016 356.859 371.641ZM344.125 371.609C344.125 370.526 344.328 369.505 344.734 368.547C345.151 367.578 345.745 366.719 346.516 365.969C347.276 365.229 348.151 364.661 349.141 364.266C350.13 363.87 351.167 363.672 352.25 363.672C353.365 363.672 354.411 363.87 355.391 364.266C356.38 364.661 357.266 365.245 358.047 366.016C358.828 366.776 359.422 367.635 359.828 368.594C360.234 369.552 360.438 370.557 360.438 371.609C360.438 372.703 360.234 373.729 359.828 374.688C359.432 375.646 358.849 376.495 358.078 377.234C357.266 378.016 356.365 378.604 355.375 379C354.385 379.406 353.344 379.609 352.25 379.609C351.177 379.609 350.146 379.406 349.156 379C348.167 378.604 347.286 378.026 346.516 377.266C345.734 376.495 345.141 375.63 344.734 374.672C344.328 373.714 344.125 372.693 344.125 371.609ZM367.312 371.547C367.312 373.078 367.693 374.302 368.453 375.219C369.224 376.135 370.234 376.594 371.484 376.594C372.766 376.594 373.755 376.167 374.453 375.312C375.161 374.458 375.516 373.245 375.516 371.672C375.516 370.109 375.146 368.891 374.406 368.016C373.677 367.13 372.672 366.688 371.391 366.688C370.109 366.688 369.109 367.115 368.391 367.969C367.672 368.823 367.312 370.016 367.312 371.547ZM364.031 385.969V364.188H367.422V366.609C367.818 365.672 368.448 364.948 369.312 364.438C370.188 363.927 371.229 363.672 372.438 363.672C374.406 363.672 376 364.401 377.219 365.859C378.448 367.307 379.062 369.214 379.062 371.578C379.062 374.068 378.458 376.031 377.25 377.469C376.052 378.896 374.406 379.609 372.312 379.609C371.271 379.609 370.344 379.401 369.531 378.984C368.729 378.568 368.026 377.932 367.422 377.078V385.969H364.031ZM382.656 379V354.781H385.844V366.609C386.521 365.589 387.318 364.844 388.234 364.375C389.151 363.906 390.266 363.672 391.578 363.672C392.682 363.672 393.62 363.849 394.391 364.203C395.172 364.547 395.781 365.062 396.219 365.75C396.479 366.156 396.667 366.63 396.781 367.172C396.896 367.714 396.953 368.661 396.953 370.016V379H393.531V371.391C393.531 369.443 393.292 368.151 392.812 367.516C392.344 366.87 391.505 366.547 390.297 366.547C389.505 366.547 388.797 366.693 388.172 366.984C387.557 367.276 387.073 367.688 386.719 368.219C386.469 368.573 386.292 369.031 386.188 369.594C386.094 370.146 386.047 371.031 386.047 372.25V379H382.656ZM404.016 385.969H400.531L404.594 377.719L399.156 364.188H402.906L405.625 371.859C405.781 372.328 405.917 372.807 406.031 373.297C406.156 373.776 406.255 374.266 406.328 374.766C406.464 374.245 406.786 373.417 407.297 372.281L407.375 372.094L411.031 364.188H414.703L404.016 385.969ZM288.297 402.406L289.141 401.922C289.724 401.578 290.161 401.182 290.453 400.734C290.745 400.276 290.891 399.766 290.891 399.203C290.891 398.557 290.693 398.031 290.297 397.625C289.901 397.208 289.385 397 288.75 397C288.052 397 287.49 397.208 287.062 397.625C286.635 398.042 286.422 398.578 286.422 399.234C286.422 399.557 286.479 399.87 286.594 400.172C286.719 400.474 286.906 400.76 287.156 401.031L288.297 402.406ZM292.406 412.391L287.406 406.625L286.828 407.016C285.734 407.724 284.969 408.375 284.531 408.969C284.104 409.552 283.891 410.203 283.891 410.922C283.891 411.932 284.245 412.786 284.953 413.484C285.661 414.182 286.542 414.531 287.594 414.531C288.375 414.531 289.161 414.354 289.953 414C290.755 413.646 291.573 413.109 292.406 412.391ZM296.359 417L294.516 414.828C293.432 415.755 292.318 416.443 291.172 416.891C290.036 417.328 288.792 417.547 287.438 417.547C285.333 417.547 283.62 416.938 282.297 415.719C280.984 414.5 280.328 412.932 280.328 411.016C280.328 409.714 280.734 408.516 281.547 407.422C282.359 406.318 283.651 405.214 285.422 404.109L284.5 403.109C283.99 402.557 283.599 401.953 283.328 401.297C283.057 400.641 282.922 399.974 282.922 399.297C282.922 397.797 283.469 396.568 284.562 395.609C285.667 394.641 287.083 394.156 288.812 394.156C290.531 394.156 291.896 394.594 292.906 395.469C293.917 396.333 294.422 397.505 294.422 398.984C294.422 400.099 294.068 401.12 293.359 402.047C292.651 402.964 291.521 403.875 289.969 404.781L294.734 410.312C295.193 409.854 295.661 409.333 296.141 408.75C296.62 408.167 297.13 407.495 297.672 406.734L299.859 409.062C299.443 409.729 298.979 410.365 298.469 410.969C297.958 411.562 297.406 412.12 296.812 412.641L300.656 417H296.359ZM313.125 417V394.125H325.891V397.281H316.844V403.016H325.891V406.281H316.844V413.672H325.891V417H313.125ZM330.672 417V405.156H328.078V402.188H330.672V396.578H334.062V402.188H336.656V405.156H334.062V417H330.672ZM339.594 417V392.781H342.781V404.609C343.458 403.589 344.255 402.844 345.172 402.375C346.089 401.906 347.203 401.672 348.516 401.672C349.62 401.672 350.557 401.849 351.328 402.203C352.109 402.547 352.719 403.062 353.156 403.75C353.417 404.156 353.604 404.63 353.719 405.172C353.833 405.714 353.891 406.661 353.891 408.016V417H350.469V409.391C350.469 407.443 350.229 406.151 349.75 405.516C349.281 404.87 348.443 404.547 347.234 404.547C346.443 404.547 345.734 404.693 345.109 404.984C344.495 405.276 344.01 405.688 343.656 406.219C343.406 406.573 343.229 407.031 343.125 407.594C343.031 408.146 342.984 409.031 342.984 410.25V417H339.594ZM358.109 395.781C358.109 395.208 358.318 394.714 358.734 394.297C359.161 393.88 359.667 393.672 360.25 393.672C360.854 393.672 361.354 393.875 361.75 394.281C362.156 394.677 362.359 395.177 362.359 395.781C362.359 396.385 362.156 396.896 361.75 397.312C361.344 397.719 360.844 397.922 360.25 397.922C359.667 397.922 359.161 397.714 358.734 397.297C358.318 396.87 358.109 396.365 358.109 395.781ZM358.562 417V402.188H361.953V417H358.562ZM377.875 406.406C377.354 405.833 376.745 405.396 376.047 405.094C375.359 404.792 374.615 404.641 373.812 404.641C372.427 404.641 371.318 405.089 370.484 405.984C369.651 406.88 369.234 408.068 369.234 409.547C369.234 411.089 369.651 412.302 370.484 413.188C371.328 414.062 372.49 414.5 373.969 414.5C374.792 414.5 375.526 414.349 376.172 414.047C376.818 413.734 377.385 413.266 377.875 412.641V416.547C377.25 416.901 376.578 417.167 375.859 417.344C375.151 417.521 374.396 417.609 373.594 417.609C371.271 417.609 369.375 416.87 367.906 415.391C366.448 413.911 365.719 411.995 365.719 409.641C365.719 407.255 366.474 405.333 367.984 403.875C369.505 402.406 371.49 401.672 373.938 401.672C374.708 401.672 375.417 401.75 376.062 401.906C376.708 402.052 377.312 402.281 377.875 402.594V406.406ZM379.641 414.312L382.453 412.781C382.661 413.521 383.047 414.083 383.609 414.469C384.172 414.854 384.896 415.047 385.781 415.047C386.542 415.047 387.135 414.875 387.562 414.531C388 414.177 388.219 413.698 388.219 413.094C388.219 412.292 387.448 411.604 385.906 411.031C385.385 410.844 384.984 410.688 384.703 410.562C383.12 409.906 382.01 409.24 381.375 408.562C380.75 407.885 380.438 407.062 380.438 406.094C380.438 404.771 380.953 403.698 381.984 402.875C383.026 402.052 384.401 401.641 386.109 401.641C387.255 401.641 388.234 401.854 389.047 402.281C389.87 402.698 390.469 403.297 390.844 404.078L388.438 405.734C388.26 405.266 387.948 404.896 387.5 404.625C387.062 404.344 386.552 404.203 385.969 404.203C385.323 404.203 384.802 404.359 384.406 404.672C384.021 404.974 383.828 405.38 383.828 405.891C383.828 406.661 384.703 407.365 386.453 408C387.005 408.198 387.432 408.359 387.734 408.484C389.099 409.026 390.073 409.641 390.656 410.328C391.25 411.005 391.547 411.854 391.547 412.875C391.547 414.354 391.01 415.516 389.938 416.359C388.865 417.193 387.385 417.609 385.5 417.609C384.052 417.609 382.849 417.339 381.891 416.797C380.932 416.255 380.182 415.427 379.641 414.312Z" fill="#F5F5F5"/>
</svg>
