<svg width="42" height="42" viewBox="0 0 42 42" fill="none" xmlns="http://www.w3.org/2000/svg">
<path d="M39.75 21C39.75 23.4623 39.265 25.9005 38.3227 28.1753C37.3805 30.4502 35.9993 32.5172 34.2582 34.2582C32.5172 35.9993 30.4502 37.3805 28.1753 38.3227C25.9005 39.265 23.4623 39.75 21 39.75C18.5377 39.75 16.0995 39.265 13.8247 38.3227C11.5498 37.3805 9.48285 35.9993 7.74175 34.2582C6.00065 32.5172 4.61953 30.4502 3.67726 28.1753C2.73498 25.9005 2.25 23.4623 2.25 21C2.25 16.0272 4.22544 11.2581 7.74175 7.74175C11.2581 4.22544 16.0272 2.25 21 2.25C25.9728 2.25 30.7419 4.22544 34.2582 7.74175C37.7746 11.2581 39.75 16.0272 39.75 21Z" stroke="#ECECEC" stroke-width="3" stroke-linecap="round" stroke-linejoin="round"/>
<path d="M31.4167 21C31.4167 18.2373 30.3192 15.5878 28.3657 13.6343M31.4167 21C31.4167 23.7627 30.3192 26.4122 28.3657 28.3657M31.4167 21H39.75M28.3657 13.6343C26.4122 11.6808 23.7627 10.5833 21 10.5833M28.3657 13.6343L34.2583 7.74167M21 10.5833C18.2373 10.5833 15.5878 11.6808 13.6343 13.6343M21 10.5833V2.25M13.6343 13.6343C11.6808 15.5878 10.5833 18.2373 10.5833 21M13.6343 13.6343L7.74167 7.74167M10.5833 21C10.5833 23.7627 11.6808 26.4122 13.6343 28.3657M10.5833 21H2.25M13.6343 28.3657C15.5878 30.3192 18.2373 31.4167 21 31.4167M13.6343 28.3657L7.74167 34.2583M21 31.4167C23.7627 31.4167 26.4122 30.3192 28.3657 28.3657M21 31.4167V39.75M28.3657 28.3657L34.2583 34.2583" stroke="#ECECEC" stroke-width="3" stroke-linecap="round" stroke-linejoin="round"/>
</svg>
