<svg width="2000" height="300" viewBox="0 0 2000 300" fill="none" xmlns="http://www.w3.org/2000/svg">
<path d="M818.438 35.375H775.562C774.75 35.375 773.971 35.0523 773.397 34.478C772.823 33.9037 772.5 33.1247 772.5 32.3125V26.1875C772.5 23.7508 773.468 21.4139 775.191 19.691C776.914 17.968 779.251 17 781.688 17H812.312C814.749 17 817.086 17.968 818.809 19.691C820.532 21.4139 821.5 23.7508 821.5 26.1875V32.3125C821.5 33.1247 821.177 33.9037 820.603 34.478C820.029 35.0523 819.25 35.375 818.438 35.375ZM778.625 29.25H815.375V26.1875C815.375 25.3753 815.052 24.5963 814.478 24.022C813.904 23.4477 813.125 23.125 812.312 23.125H781.688C780.875 23.125 780.096 23.4477 779.522 24.022C778.948 24.5963 778.625 25.3753 778.625 26.1875V29.25Z" fill="#E95577"/>
<path d="M882.75 127.801V44.5625C882.75 40.5014 881.137 36.6066 878.265 33.7349C875.393 30.8633 871.499 29.25 867.437 29.25H726.562C722.501 29.25 718.607 30.8633 715.735 33.7349C712.863 36.6066 711.25 40.5014 711.25 44.5625V127.801C709.225 128.536 707.522 129.96 706.44 131.823C705.357 133.686 704.964 135.87 705.329 137.994C705.694 140.117 706.793 142.045 708.436 143.44C710.078 144.835 712.158 145.608 714.312 145.625H755.595L719.335 208.406C719.066 208.872 718.925 209.4 718.925 209.938C718.925 210.475 719.066 211.003 719.335 211.469C719.602 211.932 719.986 212.316 720.448 212.585C720.91 212.854 721.434 212.997 721.969 213H736.117C736.652 212.997 737.176 212.854 737.638 212.585C738.1 212.316 738.484 211.932 738.751 211.469L755.595 182.375H838.527L855.371 211.469C855.638 211.932 856.022 212.316 856.484 212.585C856.946 212.854 857.471 212.997 858.005 213H872.154C872.688 212.997 873.212 212.854 873.675 212.585C874.137 212.316 874.52 211.932 874.787 211.469C875.056 211.003 875.198 210.475 875.198 209.938C875.198 209.4 875.056 208.872 874.787 208.406L838.527 145.625H879.687C881.842 145.608 883.922 144.835 885.564 143.44C887.207 142.045 888.306 140.117 888.671 137.994C889.036 135.87 888.643 133.686 887.56 131.823C886.478 129.96 884.775 128.536 882.75 127.801ZM717.375 44.5625C717.375 42.1258 718.343 39.7889 720.066 38.066C721.789 36.343 724.126 35.375 726.562 35.375H867.437C869.874 35.375 872.211 36.343 873.934 38.066C875.657 39.7889 876.625 42.1258 876.625 44.5625V104.588L854.269 82.17C851.578 79.6043 848.003 78.173 844.285 78.173C840.567 78.173 836.992 79.6043 834.301 82.17L811.271 105.2L773.113 67.0413C770.827 64.8598 767.789 63.6427 764.629 63.6427C761.47 63.6427 758.432 64.8598 756.146 67.0413L717.375 105.812V44.5625ZM876.625 113.224V127.25H833.321L820.52 114.449L818.866 112.795L815.62 109.549L838.65 86.5188C840.156 85.0463 842.179 84.2218 844.285 84.2218C846.391 84.2218 848.414 85.0463 849.92 86.5188L876.625 113.224ZM717.375 114.51L760.495 71.3287C761.61 70.2675 763.09 69.6756 764.629 69.6756C766.169 69.6756 767.649 70.2675 768.764 71.3287L806.984 109.549L811.271 113.836L824.685 127.25H717.375V114.51ZM866.825 206.875H859.781L842.937 177.781C842.67 177.318 842.287 176.934 841.825 176.665C841.362 176.396 840.838 176.253 840.304 176.25H753.819C753.284 176.253 752.76 176.396 752.298 176.665C751.836 176.934 751.452 177.318 751.185 177.781L734.341 206.875H727.297L762.639 145.625H769.744L758.229 165.531C757.96 165.997 757.818 166.525 757.818 167.062C757.818 167.6 757.96 168.128 758.229 168.594C758.496 169.057 758.88 169.441 759.342 169.71C759.804 169.979 760.328 170.122 760.863 170.125H833.26C833.794 170.122 834.319 169.979 834.781 169.71C835.243 169.441 835.627 169.057 835.894 168.594C836.163 168.128 836.304 167.6 836.304 167.062C836.304 166.525 836.163 165.997 835.894 165.531L824.379 145.625H831.484L866.825 206.875ZM776.787 145.625H817.335L827.931 164H766.191L776.787 145.625ZM879.687 139.5H714.312C713.5 139.5 712.721 139.177 712.147 138.603C711.573 138.029 711.25 137.25 711.25 136.438C711.25 135.625 711.573 134.846 712.147 134.272C712.721 133.698 713.5 133.375 714.312 133.375H879.687C880.5 133.375 881.279 133.698 881.853 134.272C882.427 134.846 882.75 135.625 882.75 136.438C882.75 137.25 882.427 138.029 881.853 138.603C881.279 139.177 880.5 139.5 879.687 139.5ZM812.312 78.25C815.341 78.25 818.302 77.3519 820.82 75.6694C823.338 73.9868 825.3 71.5953 826.459 68.7973C827.618 65.9993 827.922 62.9205 827.331 59.9502C826.74 56.9798 825.282 54.2514 823.14 52.1099C820.999 49.9684 818.27 48.5101 815.3 47.9192C812.329 47.3284 809.251 47.6316 806.453 48.7906C803.655 49.9496 801.263 51.9122 799.581 54.4303C797.898 56.9485 797 59.909 797 62.9375C797 66.9986 798.613 70.8934 801.485 73.7651C804.357 76.6367 808.251 78.25 812.312 78.25ZM812.312 53.75C814.13 53.75 815.906 54.2888 817.417 55.2984C818.928 56.3079 820.105 57.7428 820.801 59.4216C821.496 61.1004 821.678 62.9477 821.323 64.7299C820.969 66.5121 820.094 68.1491 818.809 69.434C817.524 70.7189 815.887 71.594 814.105 71.9485C812.323 72.303 810.475 72.121 808.797 71.4256C807.118 70.7303 805.683 69.5527 804.673 68.0418C803.664 66.5309 803.125 64.7546 803.125 62.9375C803.125 60.5008 804.093 58.1639 805.816 56.441C807.539 54.718 809.876 53.75 812.312 53.75Z" fill="#E95577"/>
<path d="M1225 195C1230.52 195 1235 190.515 1235 185V45C1235 39.485 1230.52 35 1225 35H1160C1155.9 35 1150.83 37.1025 1147.93 40L1120 67.9275C1117.1 70.825 1115 75.9 1115 80V185C1115 190.515 1119.48 195 1125 195H1225ZM1225 45V185H1125V80H1150C1155.52 80 1160 75.515 1160 70V45H1225ZM1150 52.07V70H1132.07L1150 52.07Z" fill="#E95577"/>
<path d="M1175 75H1205C1206.33 75 1207.6 74.4732 1208.54 73.5355C1209.47 72.5979 1210 71.3261 1210 70C1210 68.6739 1209.47 67.4021 1208.54 66.4645C1207.6 65.5268 1206.33 65 1205 65H1175C1173.67 65 1172.4 65.5268 1171.46 66.4645C1170.53 67.4021 1170 68.6739 1170 70C1170 71.3261 1170.53 72.5979 1171.46 73.5355C1172.4 74.4732 1173.67 75 1175 75ZM1205 90H1145C1143.67 90 1142.4 90.5268 1141.46 91.4645C1140.53 92.4021 1140 93.6739 1140 95C1140 96.3261 1140.53 97.5979 1141.46 98.5355C1142.4 99.4732 1143.67 100 1145 100H1205C1206.33 100 1207.6 99.4732 1208.54 98.5355C1209.47 97.5979 1210 96.3261 1210 95C1210 93.6739 1209.47 92.4021 1208.54 91.4645C1207.6 90.5268 1206.33 90 1205 90ZM1205 115H1145C1143.67 115 1142.4 115.527 1141.46 116.464C1140.53 117.402 1140 118.674 1140 120C1140 121.326 1140.53 122.598 1141.46 123.536C1142.4 124.473 1143.67 125 1145 125H1205C1206.33 125 1207.6 124.473 1208.54 123.536C1209.47 122.598 1210 121.326 1210 120C1210 118.674 1209.47 117.402 1208.54 116.464C1207.6 115.527 1206.33 115 1205 115ZM1205 140H1145C1143.67 140 1142.4 140.527 1141.46 141.464C1140.53 142.402 1140 143.674 1140 145C1140 146.326 1140.53 147.598 1141.46 148.536C1142.4 149.473 1143.67 150 1145 150H1205C1206.33 150 1207.6 149.473 1208.54 148.536C1209.47 147.598 1210 146.326 1210 145C1210 143.674 1209.47 142.402 1208.54 141.464C1207.6 140.527 1206.33 140 1205 140ZM1205 165H1145C1143.67 165 1142.4 165.527 1141.46 166.464C1140.53 167.402 1140 168.674 1140 170C1140 171.326 1140.53 172.598 1141.46 173.536C1142.4 174.473 1143.67 175 1145 175H1205C1206.33 175 1207.6 174.473 1208.54 173.536C1209.47 172.598 1210 171.326 1210 170C1210 168.674 1209.47 167.402 1208.54 166.464C1207.6 165.527 1206.33 165 1205 165Z" fill="#E95577"/>
<path d="M366.875 53.875V138.812L368.272 142.304L385.75 186L404.625 138.812L404.578 138.794C404.606 138.765 404.597 138.718 404.625 138.69V53.875C404.625 43.4466 396.178 35 385.75 35C375.322 35 366.875 43.4466 366.875 53.875ZM376.312 53.875C376.312 48.6749 380.55 44.4375 385.75 44.4375C390.95 44.4375 395.188 48.6749 395.188 53.875V63.3125H376.312V53.875ZM385.75 160.585L380.89 148.439L379.002 143.72L378.861 143.371L385.75 139.926L392.639 143.371L392.498 143.729L390.61 148.448L385.75 160.585ZM466.837 63.1143L457.919 40.3039L457.834 40.3228C457.39 37.3311 454.927 35 451.812 35C448.736 35 446.216 37.3688 445.716 40.3322L445.621 40.3133L436.788 63.1143L432.938 72.75V167.125C432.938 177.553 441.384 186 451.812 186C462.241 186 470.688 177.553 470.688 167.125C473.19 167.125 475.591 166.131 477.361 164.361C479.131 162.591 480.125 160.19 480.125 157.688V129.375C480.125 126.872 479.131 124.472 477.361 122.702C475.591 120.932 473.19 119.938 470.688 119.938V72.75L466.837 63.1143ZM458.07 66.6251L460.523 72.75H443.102L445.555 66.6251L446.877 63.3125L451.812 50.9777L456.748 63.3125L458.07 66.6251Z" fill="#E95577"/>
<g clip-path="url(#clip0_48_15)">
<path fill-rule="evenodd" clip-rule="evenodd" d="M1522.42 31.7598C1522.08 31.7874 1521.74 31.8728 1521.43 32.0123L1456.86 60.0536C1456.36 60.2691 1455.93 60.613 1455.61 61.0493C1455.28 61.4857 1455.08 61.9994 1455.02 62.5388C1454.96 63.0782 1455.05 63.6241 1455.26 64.1207C1455.48 64.6173 1455.83 65.047 1456.27 65.3667L1483.97 85.5098L1456.27 105.647C1455.83 105.966 1455.48 106.397 1455.26 106.894C1455.04 107.392 1454.96 107.938 1455.02 108.478C1455.08 109.019 1455.28 109.534 1455.6 109.971C1455.93 110.408 1456.36 110.751 1456.86 110.966L1485.79 123.525V168.644C1485.78 168.882 1485.81 169.12 1485.86 169.352C1485.7 170.063 1485.79 170.808 1486.13 171.455C1486.47 172.102 1487.02 172.609 1487.7 172.885L1552.23 200.435C1552.36 200.482 1552.48 200.521 1552.61 200.552C1552.64 200.552 1552.67 200.552 1552.7 200.552C1552.74 200.573 1552.78 200.594 1552.82 200.613C1552.9 200.637 1552.98 200.658 1553.06 200.675C1553.08 200.675 1553.1 200.675 1553.12 200.675C1553.13 200.675 1553.14 200.675 1553.14 200.675C1553.34 200.695 1553.55 200.695 1553.75 200.675C1553.84 200.658 1553.92 200.638 1554.01 200.613C1554.03 200.613 1554.04 200.613 1554.06 200.613C1554.08 200.614 1554.11 200.614 1554.13 200.613C1554.21 200.596 1554.28 200.575 1554.36 200.552C1554.46 200.523 1554.55 200.491 1554.65 200.453C1554.69 200.434 1554.73 200.413 1554.77 200.392L1619.31 172.843C1619.99 172.568 1620.55 172.06 1620.89 171.41C1621.23 170.76 1621.32 170.01 1621.16 169.296C1621.2 169.067 1621.22 168.835 1621.22 168.601V123.224L1650.15 110.659C1650.65 110.443 1651.08 110.099 1651.4 109.664C1651.72 109.228 1651.93 108.715 1651.99 108.176C1652.05 107.638 1651.96 107.093 1651.74 106.597C1651.53 106.102 1651.18 105.671 1650.74 105.351L1621.97 84.4329C1621.96 84.4123 1621.95 84.3917 1621.95 84.3713C1621.94 84.3506 1621.93 84.3301 1621.92 84.3096L1647.89 65.4283C1648.33 65.1087 1648.68 64.679 1648.9 64.1823C1649.12 63.6857 1649.2 63.1398 1649.14 62.6004C1649.08 62.061 1648.88 61.5474 1648.56 61.111C1648.23 60.6746 1647.8 60.3307 1647.3 60.1152L1582.75 32.08C1582.37 31.9119 1581.96 31.8221 1581.55 31.8154C1580.88 31.8083 1580.24 32.0153 1579.7 32.4061L1552.16 52.4327L1524.45 32.2953C1523.87 31.8644 1523.15 31.6553 1522.42 31.7046V31.7598ZM1522.27 38.3779L1547.41 56.6621L1489.06 81.6133L1464.25 63.5751L1522.27 38.3779ZM1581.9 38.4759L1639.92 63.6736L1616.24 80.8806L1557.9 55.9294L1581.9 38.4759ZM1553.51 60.7555L1611.25 85.4481L1553.5 110.148L1534.91 102.206L1511.05 92.0049L1495.73 85.4481L1553.51 60.7555ZM1618.05 89.253L1642.76 107.217L1584.74 132.414L1559.69 114.198L1618.05 89.253ZM1489.19 89.3514L1508.63 97.6622L1532.5 107.864L1547.53 114.297L1522.27 132.673L1464.25 107.469L1489.19 89.3514ZM1556.58 119.554L1582.56 138.429C1582.99 138.744 1583.5 138.94 1584.03 139C1584.56 139.059 1585.1 138.979 1585.59 138.767L1615.07 125.963V168.022L1556.58 192.986V119.554ZM1550.43 119.794V192.986L1491.94 168.022V126.215L1521.43 139.02C1521.92 139.231 1522.45 139.312 1522.99 139.252C1523.52 139.193 1524.02 138.996 1524.45 138.682L1550.43 119.794ZM1581.05 153.894C1581.04 153.894 1581.03 153.894 1581.02 153.894C1580.64 153.914 1580.27 154.003 1579.92 154.158L1563.55 161.158C1563.18 161.318 1562.84 161.548 1562.56 161.838C1562.27 162.127 1562.05 162.47 1561.9 162.845C1561.75 163.221 1561.67 163.622 1561.68 164.027C1561.68 164.431 1561.77 164.831 1561.93 165.203C1562.09 165.575 1562.32 165.911 1562.61 166.194C1562.9 166.477 1563.24 166.7 1563.61 166.85C1563.99 167 1564.39 167.075 1564.8 167.07C1565.2 167.065 1565.6 166.981 1565.97 166.822L1582.34 159.822C1583.02 159.556 1583.58 159.056 1583.93 158.411C1584.27 157.766 1584.38 157.019 1584.22 156.304C1584.07 155.588 1583.66 154.951 1583.08 154.508C1582.5 154.064 1581.78 153.842 1581.05 153.882V153.894ZM1597.42 158.092C1597.41 158.092 1597.39 158.092 1597.38 158.092C1597 158.112 1596.63 158.202 1596.29 158.357L1579.92 165.35L1563.55 172.35C1563.16 172.497 1562.8 172.721 1562.5 173.009C1562.2 173.296 1561.96 173.642 1561.8 174.025C1561.64 174.407 1561.55 174.819 1561.55 175.235C1561.55 175.651 1561.64 176.062 1561.8 176.444C1561.97 176.827 1562.21 177.172 1562.51 177.459C1562.81 177.746 1563.17 177.969 1563.56 178.114C1563.94 178.26 1564.36 178.325 1564.78 178.305C1565.19 178.286 1565.6 178.183 1565.97 178.002L1582.34 171.014L1598.71 164.015C1599.38 163.745 1599.94 163.244 1600.29 162.6C1600.63 161.956 1600.73 161.212 1600.58 160.499C1600.42 159.787 1600.02 159.152 1599.44 158.709C1598.86 158.266 1598.14 158.043 1597.41 158.08L1597.42 158.092Z" fill="#E95577"/>
</g>
<path d="M316.949 255.762C316.949 254.316 316.682 252.943 316.148 251.641C315.628 250.339 314.872 249.18 313.883 248.164C312.919 247.161 311.799 246.393 310.523 245.859C309.26 245.312 307.926 245.039 306.52 245.039C305.113 245.039 303.772 245.306 302.496 245.84C301.233 246.374 300.107 247.148 299.117 248.164C298.128 249.167 297.372 250.319 296.852 251.621C296.331 252.923 296.07 254.303 296.07 255.762C296.07 257.207 296.331 258.574 296.852 259.863C297.372 261.152 298.128 262.305 299.117 263.32C300.107 264.336 301.233 265.111 302.496 265.645C303.759 266.178 305.1 266.445 306.52 266.445C307.913 266.445 309.234 266.178 310.484 265.645C311.747 265.111 312.88 264.336 313.883 263.32C314.872 262.305 315.628 261.152 316.148 259.863C316.682 258.561 316.949 257.194 316.949 255.762ZM321.793 255.762C321.793 257.793 321.409 259.714 320.641 261.523C319.885 263.333 318.779 264.948 317.32 266.367C315.849 267.786 314.189 268.874 312.34 269.629C310.491 270.384 308.551 270.762 306.52 270.762C304.462 270.762 302.496 270.384 300.621 269.629C298.759 268.861 297.112 267.773 295.68 266.367C294.221 264.948 293.115 263.34 292.359 261.543C291.604 259.746 291.227 257.819 291.227 255.762C291.227 253.717 291.604 251.79 292.359 249.98C293.115 248.171 294.221 246.549 295.68 245.117C297.138 243.698 298.792 242.617 300.641 241.875C302.49 241.133 304.449 240.762 306.52 240.762C308.577 240.762 310.523 241.133 312.359 241.875C314.208 242.617 315.862 243.698 317.32 245.117C318.779 246.562 319.885 248.197 320.641 250.02C321.409 251.829 321.793 253.743 321.793 255.762ZM327.359 270V255.195H324.117V251.484H327.359V246.523C327.359 244.062 327.867 242.246 328.883 241.074C329.911 239.902 331.5 239.316 333.648 239.316C334.104 239.316 334.573 239.349 335.055 239.414C335.536 239.479 336.025 239.583 336.52 239.727V243.555C336.181 243.359 335.836 243.216 335.484 243.125C335.146 243.021 334.801 242.969 334.449 242.969C333.434 242.969 332.704 243.281 332.262 243.906C331.819 244.531 331.598 245.586 331.598 247.07V251.484H336.051V255.195H331.598V270H327.359ZM339.625 270V255.195H336.383V251.484H339.625V246.523C339.625 244.062 340.133 242.246 341.148 241.074C342.177 239.902 343.766 239.316 345.914 239.316C346.37 239.316 346.839 239.349 347.32 239.414C347.802 239.479 348.29 239.583 348.785 239.727V243.555C348.447 243.359 348.102 243.216 347.75 243.125C347.411 243.021 347.066 242.969 346.715 242.969C345.699 242.969 344.97 243.281 344.527 243.906C344.085 244.531 343.863 245.586 343.863 247.07V251.484H348.316V255.195H343.863V270H339.625ZM350.934 243.477C350.934 242.76 351.194 242.142 351.715 241.621C352.249 241.1 352.88 240.84 353.609 240.84C354.365 240.84 354.99 241.094 355.484 241.602C355.992 242.096 356.246 242.721 356.246 243.477C356.246 244.232 355.992 244.87 355.484 245.391C354.977 245.898 354.352 246.152 353.609 246.152C352.88 246.152 352.249 245.892 351.715 245.371C351.194 244.837 350.934 244.206 350.934 243.477ZM351.5 270V251.484H355.738V270H351.5ZM375.641 256.758C374.99 256.042 374.228 255.495 373.355 255.117C372.496 254.74 371.565 254.551 370.562 254.551C368.831 254.551 367.444 255.111 366.402 256.23C365.361 257.35 364.84 258.835 364.84 260.684C364.84 262.611 365.361 264.128 366.402 265.234C367.457 266.328 368.909 266.875 370.758 266.875C371.786 266.875 372.704 266.686 373.512 266.309C374.319 265.918 375.029 265.332 375.641 264.551V269.434C374.859 269.876 374.02 270.208 373.121 270.43C372.236 270.651 371.292 270.762 370.289 270.762C367.385 270.762 365.016 269.837 363.18 267.988C361.357 266.139 360.445 263.743 360.445 260.801C360.445 257.819 361.389 255.417 363.277 253.594C365.178 251.758 367.659 250.84 370.719 250.84C371.682 250.84 372.568 250.938 373.375 251.133C374.182 251.315 374.938 251.602 375.641 251.992V256.758ZM397.809 261.367H383.004C383.108 263.099 383.622 264.453 384.547 265.43C385.471 266.393 386.702 266.875 388.238 266.875C389.605 266.875 390.745 266.589 391.656 266.016C392.568 265.443 393.362 264.518 394.039 263.242L397.613 265.234C396.572 267.096 395.283 268.483 393.746 269.395C392.21 270.306 390.406 270.762 388.336 270.762C385.367 270.762 383.004 269.857 381.246 268.047C379.488 266.237 378.609 263.822 378.609 260.801C378.609 257.897 379.514 255.514 381.324 253.652C383.147 251.777 385.484 250.84 388.336 250.84C391.318 250.84 393.642 251.693 395.309 253.398C396.975 255.104 397.809 257.493 397.809 260.566V261.367ZM393.414 258.516C393.245 257.188 392.737 256.178 391.891 255.488C391.044 254.785 389.885 254.434 388.414 254.434C387.021 254.434 385.901 254.772 385.055 255.449C384.208 256.126 383.616 257.148 383.277 258.516H393.414ZM412.184 266.641L415.699 264.727C415.96 265.651 416.441 266.354 417.145 266.836C417.848 267.318 418.753 267.559 419.859 267.559C420.81 267.559 421.552 267.344 422.086 266.914C422.633 266.471 422.906 265.872 422.906 265.117C422.906 264.115 421.943 263.255 420.016 262.539C419.365 262.305 418.863 262.109 418.512 261.953C416.533 261.133 415.146 260.299 414.352 259.453C413.57 258.607 413.18 257.578 413.18 256.367C413.18 254.714 413.824 253.372 415.113 252.344C416.415 251.315 418.134 250.801 420.27 250.801C421.702 250.801 422.926 251.068 423.941 251.602C424.97 252.122 425.719 252.871 426.188 253.848L423.18 255.918C422.958 255.332 422.568 254.87 422.008 254.531C421.461 254.18 420.823 254.004 420.094 254.004C419.286 254.004 418.635 254.199 418.141 254.59C417.659 254.967 417.418 255.475 417.418 256.113C417.418 257.077 418.512 257.956 420.699 258.75C421.389 258.997 421.923 259.199 422.301 259.355C424.007 260.033 425.224 260.801 425.953 261.66C426.695 262.507 427.066 263.568 427.066 264.844C427.066 266.693 426.396 268.145 425.055 269.199C423.714 270.241 421.865 270.762 419.508 270.762C417.698 270.762 416.194 270.423 414.996 269.746C413.798 269.069 412.861 268.034 412.184 266.641ZM435.445 251.484V261.914C435.445 263.711 435.816 265 436.559 265.781C437.301 266.562 438.505 266.953 440.172 266.953C441.839 266.953 443.043 266.562 443.785 265.781C444.527 265 444.898 263.711 444.898 261.914V251.484H449.137V260.645C449.137 264.186 448.427 266.758 447.008 268.359C445.589 269.961 443.323 270.762 440.211 270.762C437.047 270.762 434.755 269.967 433.336 268.379C431.917 266.79 431.207 264.212 431.207 260.645V251.484H435.445ZM458.961 260.684C458.961 262.598 459.436 264.128 460.387 265.273C461.35 266.419 462.613 266.992 464.176 266.992C465.777 266.992 467.014 266.458 467.887 265.391C468.772 264.323 469.215 262.806 469.215 260.84C469.215 258.887 468.753 257.363 467.828 256.27C466.917 255.163 465.66 254.609 464.059 254.609C462.457 254.609 461.207 255.143 460.309 256.211C459.41 257.279 458.961 258.77 458.961 260.684ZM454.859 278.711V251.484H459.098V254.512C459.592 253.34 460.38 252.435 461.461 251.797C462.555 251.159 463.857 250.84 465.367 250.84C467.828 250.84 469.82 251.751 471.344 253.574C472.88 255.384 473.648 257.767 473.648 260.723C473.648 263.835 472.893 266.289 471.383 268.086C469.885 269.87 467.828 270.762 465.211 270.762C463.909 270.762 462.75 270.501 461.734 269.98C460.732 269.46 459.853 268.665 459.098 267.598V278.711H454.859ZM482.242 260.684C482.242 262.598 482.717 264.128 483.668 265.273C484.632 266.419 485.895 266.992 487.457 266.992C489.059 266.992 490.296 266.458 491.168 265.391C492.053 264.323 492.496 262.806 492.496 260.84C492.496 258.887 492.034 257.363 491.109 256.27C490.198 255.163 488.941 254.609 487.34 254.609C485.738 254.609 484.488 255.143 483.59 256.211C482.691 257.279 482.242 258.77 482.242 260.684ZM478.141 278.711V251.484H482.379V254.512C482.874 253.34 483.661 252.435 484.742 251.797C485.836 251.159 487.138 250.84 488.648 250.84C491.109 250.84 493.102 251.751 494.625 253.574C496.161 255.384 496.93 257.767 496.93 260.723C496.93 263.835 496.174 266.289 494.664 268.086C493.167 269.87 491.109 270.762 488.492 270.762C487.19 270.762 486.031 270.501 485.016 269.98C484.013 269.46 483.134 268.665 482.379 267.598V278.711H478.141ZM501.617 270V239.727H505.855V270H501.617ZM511.559 243.477C511.559 242.76 511.819 242.142 512.34 241.621C512.874 241.1 513.505 240.84 514.234 240.84C514.99 240.84 515.615 241.094 516.109 241.602C516.617 242.096 516.871 242.721 516.871 243.477C516.871 244.232 516.617 244.87 516.109 245.391C515.602 245.898 514.977 246.152 514.234 246.152C513.505 246.152 512.874 245.892 512.34 245.371C511.819 244.837 511.559 244.206 511.559 243.477ZM512.125 270V251.484H516.363V270H512.125ZM540.27 261.367H525.465C525.569 263.099 526.083 264.453 527.008 265.43C527.932 266.393 529.163 266.875 530.699 266.875C532.066 266.875 533.206 266.589 534.117 266.016C535.029 265.443 535.823 264.518 536.5 263.242L540.074 265.234C539.033 267.096 537.743 268.483 536.207 269.395C534.671 270.306 532.867 270.762 530.797 270.762C527.828 270.762 525.465 269.857 523.707 268.047C521.949 266.237 521.07 263.822 521.07 260.801C521.07 257.897 521.975 255.514 523.785 253.652C525.608 251.777 527.945 250.84 530.797 250.84C533.779 250.84 536.103 251.693 537.77 253.398C539.436 255.104 540.27 257.493 540.27 260.566V261.367ZM535.875 258.516C535.706 257.188 535.198 256.178 534.352 255.488C533.505 254.785 532.346 254.434 530.875 254.434C529.482 254.434 528.362 254.772 527.516 255.449C526.669 256.126 526.077 257.148 525.738 258.516H535.875ZM542.574 266.641L546.09 264.727C546.35 265.651 546.832 266.354 547.535 266.836C548.238 267.318 549.143 267.559 550.25 267.559C551.201 267.559 551.943 267.344 552.477 266.914C553.023 266.471 553.297 265.872 553.297 265.117C553.297 264.115 552.333 263.255 550.406 262.539C549.755 262.305 549.254 262.109 548.902 261.953C546.923 261.133 545.536 260.299 544.742 259.453C543.961 258.607 543.57 257.578 543.57 256.367C543.57 254.714 544.215 253.372 545.504 252.344C546.806 251.315 548.525 250.801 550.66 250.801C552.092 250.801 553.316 251.068 554.332 251.602C555.361 252.122 556.109 252.871 556.578 253.848L553.57 255.918C553.349 255.332 552.958 254.87 552.398 254.531C551.852 254.18 551.214 254.004 550.484 254.004C549.677 254.004 549.026 254.199 548.531 254.59C548.049 254.967 547.809 255.475 547.809 256.113C547.809 257.077 548.902 257.956 551.09 258.75C551.78 258.997 552.314 259.199 552.691 259.355C554.397 260.033 555.615 260.801 556.344 261.66C557.086 262.507 557.457 263.568 557.457 264.844C557.457 266.693 556.786 268.145 555.445 269.199C554.104 270.241 552.255 270.762 549.898 270.762C548.089 270.762 546.585 270.423 545.387 269.746C544.189 269.069 543.251 268.034 542.574 266.641Z" fill="#1F2D3B"/>
<path d="M735.684 258.77H743.652L740.723 252.246C740.553 251.829 740.378 251.354 740.195 250.82C740.013 250.273 739.831 249.668 739.648 249.004C739.492 249.629 739.323 250.215 739.141 250.762C738.971 251.296 738.796 251.79 738.613 252.246L735.684 258.77ZM748.535 270L745.293 262.637H733.965L730.645 270H725.762L739.609 240.273L753.438 270H748.535ZM760.02 254.434C760.475 253.21 761.074 252.305 761.816 251.719C762.572 251.133 763.503 250.84 764.609 250.84C765.208 250.84 765.794 250.911 766.367 251.055C766.953 251.198 767.526 251.406 768.086 251.68L766.562 255.273C766.198 255.013 765.801 254.824 765.371 254.707C764.954 254.577 764.486 254.512 763.965 254.512C762.559 254.512 761.549 255.078 760.938 256.211C760.326 257.331 760.02 259.219 760.02 261.875V270H755.781V251.445H760.02V254.434ZM771.504 270V255.195H768.262V251.484H771.504V244.473H775.742V251.484H778.984V255.195H775.742V270H771.504ZM800.371 271.113L796.094 261.484C795.768 260.742 795.501 260.085 795.293 259.512C795.085 258.926 794.896 258.353 794.727 257.793C794.44 258.639 794.186 259.368 793.965 259.98C793.743 260.579 793.568 261.029 793.438 261.328L789.043 271.113L779.453 251.484H783.965L788.125 260.41C788.294 260.788 788.457 261.309 788.613 261.973C788.783 262.624 788.926 263.346 789.043 264.141C789.056 263.672 789.134 263.184 789.277 262.676C789.421 262.168 789.661 261.543 790 260.801L794.531 250.801H794.883L799.492 260.801C799.779 261.426 799.987 262.005 800.117 262.539C800.26 263.073 800.345 263.607 800.371 264.141C800.488 263.438 800.638 262.773 800.82 262.148C801.003 261.523 801.211 260.957 801.445 260.449L805.527 251.484H810L800.371 271.113ZM827.207 260.801C827.207 259.082 826.654 257.63 825.547 256.445C824.44 255.247 823.086 254.648 821.484 254.648C819.896 254.648 818.542 255.247 817.422 256.445C816.315 257.63 815.762 259.082 815.762 260.801C815.762 262.52 816.315 263.978 817.422 265.176C818.542 266.361 819.896 266.953 821.484 266.953C823.073 266.953 824.421 266.361 825.527 265.176C826.647 263.978 827.207 262.52 827.207 260.801ZM811.289 260.762C811.289 259.408 811.543 258.132 812.051 256.934C812.572 255.723 813.314 254.648 814.277 253.711C815.228 252.786 816.322 252.077 817.559 251.582C818.796 251.087 820.091 250.84 821.445 250.84C822.839 250.84 824.147 251.087 825.371 251.582C826.608 252.077 827.715 252.806 828.691 253.77C829.668 254.72 830.41 255.794 830.918 256.992C831.426 258.19 831.68 259.447 831.68 260.762C831.68 262.129 831.426 263.411 830.918 264.609C830.423 265.807 829.694 266.868 828.73 267.793C827.715 268.77 826.589 269.505 825.352 270C824.115 270.508 822.812 270.762 821.445 270.762C820.104 270.762 818.815 270.508 817.578 270C816.341 269.505 815.241 268.783 814.277 267.832C813.301 266.868 812.559 265.788 812.051 264.59C811.543 263.392 811.289 262.116 811.289 260.762ZM840.41 254.434C840.866 253.21 841.465 252.305 842.207 251.719C842.962 251.133 843.893 250.84 845 250.84C845.599 250.84 846.185 250.911 846.758 251.055C847.344 251.198 847.917 251.406 848.477 251.68L846.953 255.273C846.589 255.013 846.191 254.824 845.762 254.707C845.345 254.577 844.876 254.512 844.355 254.512C842.949 254.512 841.94 255.078 841.328 256.211C840.716 257.331 840.41 259.219 840.41 261.875V270H836.172V251.445H840.41V254.434ZM850.898 270V239.727H855.137V259.16L862.891 251.484H868.125L859.727 259.648L868.926 270H863.457L855.137 260.449V270H850.898Z" fill="#1F2D3B"/>
<path d="M1080.05 265.801H1083.95C1086.1 265.801 1087.71 265.658 1088.78 265.371C1089.86 265.085 1090.8 264.603 1091.59 263.926C1092.67 263.001 1093.48 261.855 1094.01 260.488C1094.56 259.108 1094.83 257.507 1094.83 255.684C1094.83 253.861 1094.56 252.266 1094.01 250.898C1093.48 249.518 1092.67 248.366 1091.59 247.441C1090.78 246.764 1089.81 246.283 1088.68 245.996C1087.56 245.71 1085.8 245.566 1083.41 245.566H1081.73H1080.05V265.801ZM1075.4 270V241.406H1081.67C1085.74 241.406 1088.61 241.615 1090.26 242.031C1091.93 242.435 1093.39 243.118 1094.64 244.082C1096.29 245.345 1097.54 246.966 1098.39 248.945C1099.25 250.924 1099.68 253.184 1099.68 255.723C1099.68 258.262 1099.25 260.514 1098.39 262.48C1097.54 264.434 1096.29 266.048 1094.64 267.324C1093.39 268.288 1091.96 268.978 1090.36 269.395C1088.77 269.798 1086.29 270 1082.92 270H1081.67H1075.4ZM1119.21 260.801C1119.21 259.082 1118.65 257.63 1117.55 256.445C1116.44 255.247 1115.09 254.648 1113.48 254.648C1111.9 254.648 1110.54 255.247 1109.42 256.445C1108.32 257.63 1107.76 259.082 1107.76 260.801C1107.76 262.52 1108.32 263.978 1109.42 265.176C1110.54 266.361 1111.9 266.953 1113.48 266.953C1115.07 266.953 1116.42 266.361 1117.53 265.176C1118.65 263.978 1119.21 262.52 1119.21 260.801ZM1103.29 260.762C1103.29 259.408 1103.54 258.132 1104.05 256.934C1104.57 255.723 1105.31 254.648 1106.28 253.711C1107.23 252.786 1108.32 252.077 1109.56 251.582C1110.8 251.087 1112.09 250.84 1113.45 250.84C1114.84 250.84 1116.15 251.087 1117.37 251.582C1118.61 252.077 1119.71 252.806 1120.69 253.77C1121.67 254.72 1122.41 255.794 1122.92 256.992C1123.43 258.19 1123.68 259.447 1123.68 260.762C1123.68 262.129 1123.43 263.411 1122.92 264.609C1122.42 265.807 1121.69 266.868 1120.73 267.793C1119.71 268.77 1118.59 269.505 1117.35 270C1116.11 270.508 1114.81 270.762 1113.45 270.762C1112.1 270.762 1110.82 270.508 1109.58 270C1108.34 269.505 1107.24 268.783 1106.28 267.832C1105.3 266.868 1104.56 265.788 1104.05 264.59C1103.54 263.392 1103.29 262.116 1103.29 260.762ZM1142 256.758C1141.35 256.042 1140.59 255.495 1139.71 255.117C1138.86 254.74 1137.92 254.551 1136.92 254.551C1135.19 254.551 1133.8 255.111 1132.76 256.23C1131.72 257.35 1131.2 258.835 1131.2 260.684C1131.2 262.611 1131.72 264.128 1132.76 265.234C1133.82 266.328 1135.27 266.875 1137.12 266.875C1138.15 266.875 1139.06 266.686 1139.87 266.309C1140.68 265.918 1141.39 265.332 1142 264.551V269.434C1141.22 269.876 1140.38 270.208 1139.48 270.43C1138.6 270.651 1137.65 270.762 1136.65 270.762C1133.74 270.762 1131.38 269.837 1129.54 267.988C1127.72 266.139 1126.8 263.743 1126.8 260.801C1126.8 257.819 1127.75 255.417 1129.64 253.594C1131.54 251.758 1134.02 250.84 1137.08 250.84C1138.04 250.84 1138.93 250.938 1139.73 251.133C1140.54 251.315 1141.3 251.602 1142 251.992V256.758ZM1150.44 251.484V261.914C1150.44 263.711 1150.81 265 1151.55 265.781C1152.29 266.562 1153.5 266.953 1155.16 266.953C1156.83 266.953 1158.04 266.562 1158.78 265.781C1159.52 265 1159.89 263.711 1159.89 261.914V251.484H1164.13V260.645C1164.13 264.186 1163.42 266.758 1162 268.359C1160.58 269.961 1158.32 270.762 1155.2 270.762C1152.04 270.762 1149.75 269.967 1148.33 268.379C1146.91 266.79 1146.2 264.212 1146.2 260.645V251.484H1150.44ZM1174.09 270H1169.85V251.484H1173.84V254.512C1174.68 253.223 1175.64 252.285 1176.71 251.699C1177.79 251.1 1179.06 250.801 1180.52 250.801C1181.96 250.801 1183.16 251.107 1184.11 251.719C1185.06 252.318 1185.78 253.236 1186.28 254.473C1187.25 253.197 1188.29 252.266 1189.38 251.68C1190.49 251.094 1191.75 250.801 1193.15 250.801C1194.38 250.801 1195.44 251.029 1196.36 251.484C1197.27 251.927 1197.98 252.578 1198.48 253.438C1198.72 253.841 1198.89 254.323 1198.99 254.883C1199.11 255.443 1199.17 256.243 1199.17 257.285V258.77V270H1194.93V260.488C1194.93 258.001 1194.66 256.367 1194.13 255.586C1193.61 254.792 1192.67 254.395 1191.32 254.395C1189.65 254.395 1188.46 254.928 1187.74 255.996C1187.04 257.051 1186.69 258.906 1186.69 261.562V270H1182.41V260.488C1182.41 258.197 1182.13 256.608 1181.57 255.723C1181.02 254.837 1180.07 254.395 1178.72 254.395C1177.89 254.395 1177.12 254.583 1176.43 254.961C1175.74 255.339 1175.2 255.859 1174.79 256.523C1174.53 256.953 1174.35 257.48 1174.25 258.105C1174.14 258.73 1174.09 259.883 1174.09 261.562V270ZM1222.68 261.367H1207.88C1207.98 263.099 1208.5 264.453 1209.42 265.43C1210.35 266.393 1211.58 266.875 1213.11 266.875C1214.48 266.875 1215.62 266.589 1216.53 266.016C1217.44 265.443 1218.24 264.518 1218.91 263.242L1222.49 265.234C1221.45 267.096 1220.16 268.483 1218.62 269.395C1217.08 270.306 1215.28 270.762 1213.21 270.762C1210.24 270.762 1207.88 269.857 1206.12 268.047C1204.36 266.237 1203.48 263.822 1203.48 260.801C1203.48 257.897 1204.39 255.514 1206.2 253.652C1208.02 251.777 1210.36 250.84 1213.21 250.84C1216.19 250.84 1218.52 251.693 1220.18 253.398C1221.85 255.104 1222.68 257.493 1222.68 260.566V261.367ZM1218.29 258.516C1218.12 257.188 1217.61 256.178 1216.77 255.488C1215.92 254.785 1214.76 254.434 1213.29 254.434C1211.9 254.434 1210.78 254.772 1209.93 255.449C1209.08 256.126 1208.49 257.148 1208.15 258.516H1218.29ZM1227.12 270V251.484H1231.1V254.512C1231.95 253.236 1232.94 252.305 1234.09 251.719C1235.24 251.133 1236.63 250.84 1238.27 250.84C1239.65 250.84 1240.82 251.061 1241.79 251.504C1242.76 251.934 1243.52 252.578 1244.07 253.438C1244.4 253.945 1244.63 254.538 1244.77 255.215C1244.92 255.892 1244.99 257.077 1244.99 258.77V270H1240.71V260.488C1240.71 258.053 1240.41 256.439 1239.81 255.645C1239.23 254.837 1238.18 254.434 1236.67 254.434C1235.68 254.434 1234.79 254.616 1234.01 254.98C1233.24 255.345 1232.64 255.859 1232.2 256.523C1231.88 256.966 1231.66 257.539 1231.53 258.242C1231.41 258.932 1231.36 260.039 1231.36 261.562V270H1227.12ZM1251.63 270V255.195H1248.39V251.484H1251.63V244.473H1255.87V251.484H1259.11V255.195H1255.87V270H1251.63ZM1260.65 266.641L1264.17 264.727C1264.43 265.651 1264.91 266.354 1265.61 266.836C1266.32 267.318 1267.22 267.559 1268.33 267.559C1269.28 267.559 1270.02 267.344 1270.55 266.914C1271.1 266.471 1271.38 265.872 1271.38 265.117C1271.38 264.115 1270.41 263.255 1268.48 262.539C1267.83 262.305 1267.33 262.109 1266.98 261.953C1265 261.133 1263.61 260.299 1262.82 259.453C1262.04 258.607 1261.65 257.578 1261.65 256.367C1261.65 254.714 1262.29 253.372 1263.58 252.344C1264.88 251.315 1266.6 250.801 1268.74 250.801C1270.17 250.801 1271.39 251.068 1272.41 251.602C1273.44 252.122 1274.19 252.871 1274.66 253.848L1271.65 255.918C1271.43 255.332 1271.04 254.87 1270.48 254.531C1269.93 254.18 1269.29 254.004 1268.56 254.004C1267.76 254.004 1267.1 254.199 1266.61 254.59C1266.13 254.967 1265.89 255.475 1265.89 256.113C1265.89 257.077 1266.98 257.956 1269.17 258.75C1269.86 258.997 1270.39 259.199 1270.77 259.355C1272.48 260.033 1273.69 260.801 1274.42 261.66C1275.16 262.507 1275.54 263.568 1275.54 264.844C1275.54 266.693 1274.86 268.145 1273.52 269.199C1272.18 270.241 1270.33 270.762 1267.98 270.762C1266.17 270.762 1264.66 270.423 1263.46 269.746C1262.27 269.069 1261.33 268.034 1260.65 266.641Z" fill="#1F2D3B"/>
<path d="M1472.14 255.762C1472.14 254.316 1471.87 252.943 1471.34 251.641C1470.82 250.339 1470.06 249.18 1469.07 248.164C1468.11 247.161 1466.99 246.393 1465.71 245.859C1464.45 245.312 1463.12 245.039 1461.71 245.039C1460.3 245.039 1458.96 245.306 1457.69 245.84C1456.42 246.374 1455.3 247.148 1454.31 248.164C1453.32 249.167 1452.56 250.319 1452.04 251.621C1451.52 252.923 1451.26 254.303 1451.26 255.762C1451.26 257.207 1451.52 258.574 1452.04 259.863C1452.56 261.152 1453.32 262.305 1454.31 263.32C1455.3 264.336 1456.42 265.111 1457.69 265.645C1458.95 266.178 1460.29 266.445 1461.71 266.445C1463.1 266.445 1464.43 266.178 1465.68 265.645C1466.94 265.111 1468.07 264.336 1469.07 263.32C1470.06 262.305 1470.82 261.152 1471.34 259.863C1471.87 258.561 1472.14 257.194 1472.14 255.762ZM1476.98 255.762C1476.98 257.793 1476.6 259.714 1475.83 261.523C1475.08 263.333 1473.97 264.948 1472.51 266.367C1471.04 267.786 1469.38 268.874 1467.53 269.629C1465.68 270.384 1463.74 270.762 1461.71 270.762C1459.65 270.762 1457.69 270.384 1455.81 269.629C1453.95 268.861 1452.3 267.773 1450.87 266.367C1449.41 264.948 1448.31 263.34 1447.55 261.543C1446.8 259.746 1446.42 257.819 1446.42 255.762C1446.42 253.717 1446.8 251.79 1447.55 249.98C1448.31 248.171 1449.41 246.549 1450.87 245.117C1452.33 243.698 1453.98 242.617 1455.83 241.875C1457.68 241.133 1459.64 240.762 1461.71 240.762C1463.77 240.762 1465.71 241.133 1467.55 241.875C1469.4 242.617 1471.05 243.698 1472.51 245.117C1473.97 246.562 1475.08 248.197 1475.83 250.02C1476.6 251.829 1476.98 253.743 1476.98 255.762ZM1482.96 270V255.195H1479.72V251.484H1482.96V244.473H1487.2V251.484H1490.44V255.195H1487.2V270H1482.96ZM1494.11 270V239.727H1498.1V254.512C1498.94 253.236 1499.94 252.305 1501.09 251.719C1502.23 251.133 1503.62 250.84 1505.27 250.84C1506.65 250.84 1507.82 251.061 1508.78 251.504C1509.76 251.934 1510.52 252.578 1511.07 253.438C1511.39 253.945 1511.63 254.538 1511.77 255.215C1511.91 255.892 1511.98 257.077 1511.98 258.77V270H1507.71V260.488C1507.71 258.053 1507.41 256.439 1506.81 255.645C1506.22 254.837 1505.17 254.434 1503.66 254.434C1502.67 254.434 1501.79 254.616 1501.01 254.98C1500.24 255.345 1499.63 255.859 1499.19 256.523C1498.88 256.966 1498.66 257.539 1498.53 258.242C1498.41 258.932 1498.35 260.039 1498.35 261.562V270H1494.11ZM1535.46 261.367H1520.66C1520.76 263.099 1521.27 264.453 1522.2 265.43C1523.12 266.393 1524.35 266.875 1525.89 266.875C1527.26 266.875 1528.4 266.589 1529.31 266.016C1530.22 265.443 1531.01 264.518 1531.69 263.242L1535.27 265.234C1534.22 267.096 1532.93 268.483 1531.4 269.395C1529.86 270.306 1528.06 270.762 1525.99 270.762C1523.02 270.762 1520.66 269.857 1518.9 268.047C1517.14 266.237 1516.26 263.822 1516.26 260.801C1516.26 257.897 1517.17 255.514 1518.98 253.652C1520.8 251.777 1523.14 250.84 1525.99 250.84C1528.97 250.84 1531.29 251.693 1532.96 253.398C1534.63 255.104 1535.46 257.493 1535.46 260.566V261.367ZM1531.07 258.516C1530.9 257.188 1530.39 256.178 1529.54 255.488C1528.7 254.785 1527.54 254.434 1526.07 254.434C1524.67 254.434 1523.55 254.772 1522.71 255.449C1521.86 256.126 1521.27 257.148 1520.93 258.516H1531.07ZM1544.13 254.434C1544.59 253.21 1545.19 252.305 1545.93 251.719C1546.68 251.133 1547.62 250.84 1548.72 250.84C1549.32 250.84 1549.91 250.911 1550.48 251.055C1551.07 251.198 1551.64 251.406 1552.2 251.68L1550.68 255.273C1550.31 255.013 1549.91 254.824 1549.48 254.707C1549.07 254.577 1548.6 254.512 1548.08 254.512C1546.67 254.512 1545.66 255.078 1545.05 256.211C1544.44 257.331 1544.13 259.219 1544.13 261.875V270H1539.89V251.445H1544.13V254.434ZM1567.12 270V241.406H1571.77V270H1567.12ZM1579.09 270V255.195H1575.85V251.484H1579.09V244.473H1583.33V251.484H1586.57V255.195H1583.33V270H1579.09ZM1608.08 261.367H1593.27C1593.38 263.099 1593.89 264.453 1594.82 265.43C1595.74 266.393 1596.97 266.875 1598.51 266.875C1599.88 266.875 1601.01 266.589 1601.93 266.016C1602.84 265.443 1603.63 264.518 1604.31 263.242L1607.88 265.234C1606.84 267.096 1605.55 268.483 1604.02 269.395C1602.48 270.306 1600.68 270.762 1598.61 270.762C1595.64 270.762 1593.27 269.857 1591.52 268.047C1589.76 266.237 1588.88 263.822 1588.88 260.801C1588.88 257.897 1589.78 255.514 1591.59 253.652C1593.42 251.777 1595.75 250.84 1598.61 250.84C1601.59 250.84 1603.91 251.693 1605.58 253.398C1607.24 255.104 1608.08 257.493 1608.08 260.566V261.367ZM1603.68 258.516C1603.51 257.188 1603.01 256.178 1602.16 255.488C1601.31 254.785 1600.15 254.434 1598.68 254.434C1597.29 254.434 1596.17 254.772 1595.32 255.449C1594.48 256.126 1593.89 257.148 1593.55 258.516H1603.68ZM1616.75 270H1612.51V251.484H1616.5V254.512C1617.34 253.223 1618.3 252.285 1619.37 251.699C1620.45 251.1 1621.72 250.801 1623.18 250.801C1624.62 250.801 1625.82 251.107 1626.77 251.719C1627.72 252.318 1628.44 253.236 1628.94 254.473C1629.91 253.197 1630.95 252.266 1632.04 251.68C1633.15 251.094 1634.41 250.801 1635.81 250.801C1637.04 250.801 1638.1 251.029 1639.02 251.484C1639.93 251.927 1640.64 252.578 1641.14 253.438C1641.38 253.841 1641.55 254.323 1641.65 254.883C1641.77 255.443 1641.83 256.243 1641.83 257.285V258.77V270H1637.59V260.488C1637.59 258.001 1637.32 256.367 1636.79 255.586C1636.27 254.792 1635.33 254.395 1633.98 254.395C1632.31 254.395 1631.12 254.928 1630.4 255.996C1629.7 257.051 1629.35 258.906 1629.35 261.562V270H1625.07V260.488C1625.07 258.197 1624.79 256.608 1624.23 255.723C1623.68 254.837 1622.73 254.395 1621.38 254.395C1620.55 254.395 1619.78 254.583 1619.09 254.961C1618.4 255.339 1617.86 255.859 1617.45 256.523C1617.19 256.953 1617.01 257.48 1616.91 258.105C1616.8 258.73 1616.75 259.883 1616.75 261.562V270ZM1645.38 266.641L1648.9 264.727C1649.16 265.651 1649.64 266.354 1650.34 266.836C1651.05 267.318 1651.95 267.559 1653.06 267.559C1654.01 267.559 1654.75 267.344 1655.29 266.914C1655.83 266.471 1656.11 265.872 1656.11 265.117C1656.11 264.115 1655.14 263.255 1653.21 262.539C1652.56 262.305 1652.06 262.109 1651.71 261.953C1649.73 261.133 1648.35 260.299 1647.55 259.453C1646.77 258.607 1646.38 257.578 1646.38 256.367C1646.38 254.714 1647.02 253.372 1648.31 252.344C1649.61 251.315 1651.33 250.801 1653.47 250.801C1654.9 250.801 1656.12 251.068 1657.14 251.602C1658.17 252.122 1658.92 252.871 1659.39 253.848L1656.38 255.918C1656.16 255.332 1655.77 254.87 1655.21 254.531C1654.66 254.18 1654.02 254.004 1653.29 254.004C1652.49 254.004 1651.83 254.199 1651.34 254.59C1650.86 254.967 1650.62 255.475 1650.62 256.113C1650.62 257.077 1651.71 257.956 1653.9 258.75C1654.59 258.997 1655.12 259.199 1655.5 259.355C1657.21 260.033 1658.42 260.801 1659.15 261.66C1659.89 262.507 1660.27 263.568 1660.27 264.844C1660.27 266.693 1659.6 268.145 1658.25 269.199C1656.91 270.241 1655.06 270.762 1652.71 270.762C1650.9 270.762 1649.39 270.423 1648.2 269.746C1647 269.069 1646.06 268.034 1645.38 266.641Z" fill="#1F2D3B"/>
<defs>
<clipPath id="clip0_48_15">
<rect width="197" height="197" fill="white" transform="translate(1455 16)"/>
</clipPath>
</defs>
</svg>
